<?xml version="1.0" encoding="utf-8"?>
<!-- Generator: Adobe Illustrator 24.1.2, SVG Export Plug-In . SVG Version: 6.00 Build 0)  -->
<svg version="1.1" id="Layer_1" xmlns="http://www.w3.org/2000/svg" xmlns:xlink="http://www.w3.org/1999/xlink" x="0px" y="0px"
	 viewBox="0 0 78.6 55.8" style="enable-background:new 0 0 78.6 55.8;" xml:space="preserve">
<style type="text/css">
	.st0{fill:#1D1E1B;}
	.st1{fill:none;stroke:#1D1E1B;stroke-width:2;stroke-linecap:round;stroke-miterlimit:10;}
	.st2{fill:#0C0E1B;stroke:#1D1E1B;stroke-width:2;stroke-linecap:round;stroke-miterlimit:10;}
</style>
<g>
	<path class="st0" d="M1.7,37.7V15.3h4.7v8.4h0.1c0.2-0.5,0.5-0.9,0.9-1.4c0.4-0.5,0.9-0.9,1.5-1.2c0.6-0.3,1.4-0.5,2.4-0.5
		c1.2,0,2.4,0.3,3.4,1c1,0.6,1.9,1.6,2.5,2.9c0.6,1.3,0.9,2.9,0.9,4.8c0,1.9-0.3,3.5-0.9,4.7c-0.6,1.3-1.4,2.3-2.4,2.9
		c-1,0.7-2.2,1-3.5,1c-0.9,0-1.7-0.1-2.3-0.4c-0.6-0.3-1.1-0.7-1.5-1.1C7,35.9,6.7,35.4,6.5,35H6.3v2.7H1.7z M6.3,29.3
		c0,1,0.1,1.9,0.4,2.6c0.3,0.7,0.7,1.3,1.2,1.7c0.5,0.4,1.2,0.6,1.9,0.6c0.8,0,1.4-0.2,1.9-0.6c0.5-0.4,0.9-1,1.2-1.7
		c0.3-0.7,0.4-1.6,0.4-2.6c0-1-0.1-1.8-0.4-2.6s-0.7-1.3-1.2-1.7c-0.5-0.4-1.2-0.6-1.9-0.6c-0.8,0-1.4,0.2-1.9,0.6
		c-0.5,0.4-0.9,1-1.2,1.7C6.4,27.4,6.3,28.3,6.3,29.3z"/>
	<path class="st0" d="M32,30.5v-9.6h4.7v16.8h-4.5v-3.1H32c-0.4,1-1,1.8-1.9,2.4c-0.9,0.6-1.9,0.9-3.2,0.9c-1.1,0-2.1-0.3-3-0.8
		s-1.5-1.2-2-2.2c-0.5-0.9-0.7-2.1-0.7-3.4V20.9h4.7v9.9c0,1,0.3,1.8,0.8,2.4c0.5,0.6,1.2,0.9,2.1,0.9c0.6,0,1.1-0.1,1.6-0.4
		c0.5-0.3,0.9-0.6,1.2-1.2C31.8,31.9,32,31.3,32,30.5z"/>
	<path class="st0" d="M40.3,37.7V20.9h4.5v2.9H45c0.3-1,0.8-1.8,1.5-2.4c0.7-0.5,1.6-0.8,2.5-0.8c0.2,0,0.5,0,0.8,0
		c0.3,0,0.5,0.1,0.7,0.1v4.1c-0.2-0.1-0.5-0.1-0.9-0.2c-0.4-0.1-0.7-0.1-1.1-0.1c-0.7,0-1.3,0.1-1.8,0.4c-0.5,0.3-1,0.7-1.3,1.2
		c-0.3,0.5-0.5,1.1-0.5,1.8v9.5H40.3z"/>
	<path class="st0" d="M52.9,37.7V15.3h4.7v22.4H52.9z M57.2,32.8l0-5.6h0.7l5.4-6.4h5.3l-7.2,8.4h-1.1L57.2,32.8z M63.4,37.7
		l-4.9-7.3l3.1-3.3l7.3,10.6H63.4z"/>
</g>
<line class="st1" x1="77.6" y1="1" x2="1" y2="1"/>
<line class="st2" x1="77.6" y1="54.8" x2="34.2" y2="54.8"/>
</svg>
