<?xml version="1.0" encoding="utf-8"?>
<!-- Generator: Adobe Illustrator 24.1.2, SVG Export Plug-In . SVG Version: 6.00 Build 0)  -->
<svg version="1.1" id="Layer_1" xmlns="http://www.w3.org/2000/svg" xmlns:xlink="http://www.w3.org/1999/xlink" x="0px" y="0px"
	 viewBox="0 0 1922.5 289.9" style="enable-background:new 0 0 1922.5 289.9;" xml:space="preserve">
<style type="text/css">
	.st0{fill:none;stroke:#3A3A3A;stroke-width:2;stroke-miterlimit:10;}
	.st1{fill:none;stroke:#555454;stroke-width:2;stroke-miterlimit:10;}
	.st2{fill:#3A3A3A;}
</style>
<path class="st0" d="M1923.8,182.2v98H1.5v-74.7c0,0,254.7-58.9,477.8-47.2S853,201,1119.9,184.8s472.9-43.2,610.7-28.1
	C1868.5,171.9,1923.8,182.2,1923.8,182.2"/>
<path class="st1" d="M1,268.9v-74.7c0,0,254.4-58.9,477.3-47.2s373.2,42.7,639.8,26.5s472.3-43.2,610-28.1
	c137.7,15.1,192.9,25.5,192.9,25.5l1.9,0.9"/>
<path class="st2" d="M0,215.2c0,0,255.1-58.9,478.6-47.2c223.4,11.6,374.2,42.7,641.6,26.5s473.6-43.2,611.7-28.1
	c138,15.1,193.5,25.5,193.5,25.5v98H0V215.2z"/>
</svg>
