<?xml version="1.0" encoding="utf-8"?>
<!-- Generator: Adobe Illustrator 24.1.2, SVG Export Plug-In . SVG Version: 6.00 Build 0)  -->
<svg version="1.1" xmlns="http://www.w3.org/2000/svg" xmlns:xlink="http://www.w3.org/1999/xlink" x="0px" y="0px"
	 viewBox="0 0 847.4 257.3" style="enable-background:new 0 0 847.4 257.3;" xml:space="preserve">
<style type="text/css">
	.st0{fill:#444444;}
	.st1{fill:none;stroke:#444444;stroke-width:4;stroke-linecap:round;stroke-linejoin:round;stroke-miterlimit:10;}
	.st2{fill:none;stroke:#444444;stroke-width:3;stroke-linecap:round;stroke-linejoin:round;stroke-miterlimit:10;}
	.st3{fill:#444444;stroke:#444444;stroke-width:4;stroke-miterlimit:10;}
	.st4{fill:none;stroke:#444444;stroke-width:4;stroke-linecap:round;stroke-miterlimit:10;}
	.st5{fill:none;stroke:#444444;stroke-width:7;stroke-linecap:round;stroke-linejoin:round;stroke-miterlimit:10;}
	.st6{fill:#676767;}
	.st7{fill:none;stroke:#444444;stroke-linecap:round;stroke-linejoin:round;stroke-miterlimit:10;}
</style>
<g id="BACKGROUND">
</g>
<g id="OBJECTS">
	<g>
		<path class="st0" d="M52.8,190.4c0.5,0,1,0.1,1.4,0.2c0.4,0.1,0.8,0.3,1,0.5c0.2,0.2,0.4,0.4,0.4,0.7c0,0.1,0,0.3-0.1,0.4
			s-0.2,0.2-0.4,0.2c-0.1,0-0.3,0-0.3-0.1c-0.1-0.1-0.2-0.1-0.2-0.2c-0.1-0.1-0.2-0.2-0.3-0.2c-0.1-0.1-0.3-0.1-0.5-0.2
			s-0.5-0.1-0.7-0.1c-0.6,0-1.1,0.1-1.5,0.4c-0.4,0.3-0.8,0.6-1,1.1c-0.2,0.5-0.4,1-0.4,1.5s0.1,1.1,0.4,1.5s0.6,0.8,1,1.1
			c0.4,0.3,0.9,0.4,1.5,0.4c0.4,0,0.6,0,0.9-0.1s0.4-0.1,0.5-0.2c0.2-0.1,0.3-0.2,0.4-0.3c0.1-0.1,0.2-0.2,0.4-0.2
			c0.2,0,0.3,0.1,0.4,0.2s0.1,0.3,0.1,0.4c0,0.2-0.1,0.4-0.4,0.6c-0.3,0.2-0.6,0.4-1,0.5s-0.9,0.2-1.5,0.2c-0.8,0-1.5-0.2-2-0.5
			c-0.6-0.4-1-0.9-1.4-1.5c-0.3-0.6-0.5-1.3-0.5-2.1c0-0.8,0.2-1.5,0.5-2.1c0.3-0.6,0.8-1.1,1.4-1.5C51.3,190.6,52,190.4,52.8,190.4
			z"/>
		<path class="st0" d="M57.9,198.6c-0.2,0-0.3-0.1-0.4-0.2c-0.1-0.1-0.2-0.3-0.2-0.4v-6.7c0-0.2,0.1-0.3,0.2-0.4
			c0.1-0.1,0.3-0.2,0.4-0.2c0.2,0,0.3,0.1,0.4,0.2c0.1,0.1,0.2,0.3,0.2,0.4v2l-0.2-0.3c0.1-0.3,0.2-0.6,0.3-0.9
			c0.2-0.3,0.4-0.6,0.6-0.8s0.5-0.4,0.8-0.6c0.3-0.1,0.7-0.2,1-0.2c0.2,0,0.4,0.1,0.6,0.2c0.2,0.1,0.3,0.3,0.3,0.5
			c0,0.2-0.1,0.4-0.2,0.5c-0.1,0.1-0.2,0.2-0.4,0.2c-0.1,0-0.3,0-0.4-0.1c-0.1-0.1-0.3-0.1-0.5-0.1c-0.3,0-0.5,0.1-0.8,0.2
			c-0.3,0.1-0.5,0.3-0.7,0.6c-0.2,0.3-0.4,0.5-0.5,0.9c-0.1,0.3-0.2,0.7-0.2,1v3.7c0,0.2-0.1,0.3-0.2,0.4
			C58.2,198.5,58,198.6,57.9,198.6z"/>
		<path class="st0" d="M66.8,198.7c-0.8,0-1.5-0.2-2.2-0.5c-0.6-0.3-1.1-0.8-1.4-1.4c-0.3-0.6-0.5-1.3-0.5-2.1
			c0-0.9,0.2-1.7,0.5-2.3s0.8-1.1,1.4-1.4c0.6-0.3,1.2-0.5,1.8-0.5c0.5,0,0.9,0.1,1.4,0.3c0.4,0.2,0.8,0.4,1.2,0.8
			c0.3,0.3,0.6,0.7,0.8,1.2c0.2,0.5,0.3,1,0.3,1.6c0,0.2-0.1,0.3-0.2,0.4c-0.1,0.1-0.3,0.2-0.4,0.2h-6.1l-0.3-1.1H69l-0.2,0.2v-0.3
			c0-0.4-0.2-0.8-0.4-1.1s-0.5-0.5-0.9-0.7c-0.3-0.2-0.7-0.2-1.1-0.2c-0.3,0-0.6,0.1-0.9,0.2c-0.3,0.1-0.6,0.3-0.8,0.5
			c-0.2,0.2-0.4,0.6-0.6,0.9c-0.1,0.4-0.2,0.8-0.2,1.4c0,0.6,0.1,1.1,0.4,1.6c0.2,0.5,0.6,0.8,1,1.1c0.4,0.3,0.9,0.4,1.5,0.4
			c0.4,0,0.7,0,0.9-0.1c0.3-0.1,0.5-0.2,0.7-0.3c0.2-0.1,0.4-0.3,0.5-0.4c0.1-0.1,0.3-0.1,0.4-0.1c0.2,0,0.3,0.1,0.4,0.2
			c0.1,0.1,0.1,0.2,0.1,0.4c0,0.2-0.1,0.3-0.2,0.5c-0.3,0.3-0.7,0.6-1.2,0.8C67.8,198.6,67.3,198.7,66.8,198.7z"/>
		<path class="st0" d="M78.5,190.5c0.2,0,0.3,0.1,0.4,0.2c0.1,0.1,0.2,0.3,0.2,0.4v6.8c0,0.2-0.1,0.3-0.2,0.4
			c-0.1,0.1-0.3,0.2-0.4,0.2c-0.2,0-0.3-0.1-0.4-0.2c-0.1-0.1-0.2-0.3-0.2-0.4v-1.5l0.3,0c0,0.2-0.1,0.5-0.2,0.7
			c-0.2,0.3-0.4,0.5-0.6,0.7c-0.3,0.2-0.6,0.4-0.9,0.6s-0.8,0.2-1.2,0.2c-0.7,0-1.3-0.2-1.9-0.5c-0.6-0.4-1-0.9-1.3-1.5
			c-0.3-0.6-0.5-1.3-0.5-2.1c0-0.8,0.2-1.5,0.5-2.1c0.3-0.6,0.8-1.1,1.3-1.5s1.2-0.5,1.8-0.5c0.4,0,0.9,0.1,1.2,0.2
			c0.4,0.1,0.7,0.3,1,0.6c0.3,0.2,0.5,0.5,0.7,0.8c0.2,0.3,0.2,0.6,0.2,0.9l-0.4-0.1v-1.7c0-0.2,0.1-0.3,0.2-0.4
			C78.2,190.6,78.4,190.5,78.5,190.5z M75.4,197.6c0.5,0,1-0.1,1.4-0.4c0.4-0.3,0.7-0.6,0.9-1.1s0.3-1,0.3-1.5
			c0-0.6-0.1-1.1-0.3-1.5s-0.5-0.8-0.9-1.1c-0.4-0.3-0.9-0.4-1.4-0.4c-0.5,0-1,0.1-1.3,0.4c-0.4,0.3-0.7,0.6-0.9,1.1
			c-0.2,0.5-0.3,1-0.3,1.6c0,0.6,0.1,1.1,0.3,1.5c0.2,0.5,0.5,0.8,0.9,1.1C74.4,197.5,74.9,197.6,75.4,197.6z"/>
		<path class="st0" d="M81.1,190.7h3.6c0.2,0,0.3,0.1,0.4,0.2c0.1,0.1,0.2,0.2,0.2,0.4c0,0.2-0.1,0.3-0.2,0.4
			c-0.1,0.1-0.2,0.2-0.4,0.2h-3.6c-0.2,0-0.3-0.1-0.4-0.2c-0.1-0.1-0.2-0.3-0.2-0.4c0-0.2,0.1-0.3,0.2-0.4
			C80.8,190.7,81,190.7,81.1,190.7z M82.7,188.6c0.2,0,0.3,0.1,0.4,0.2c0.1,0.1,0.2,0.3,0.2,0.4v7.4c0,0.2,0,0.4,0.1,0.6
			c0.1,0.1,0.2,0.2,0.3,0.3c0.1,0,0.2,0.1,0.3,0.1c0.1,0,0.2,0,0.3-0.1c0.1,0,0.2-0.1,0.3-0.1s0.2,0,0.3,0.1s0.1,0.2,0.1,0.4
			c0,0.2-0.1,0.3-0.3,0.5c-0.2,0.1-0.5,0.2-0.7,0.2c-0.1,0-0.3,0-0.5,0c-0.2,0-0.4-0.1-0.6-0.2c-0.2-0.1-0.4-0.3-0.5-0.6
			c-0.1-0.3-0.2-0.6-0.2-1.1v-7.5c0-0.2,0.1-0.3,0.2-0.4C82.4,188.6,82.6,188.6,82.7,188.6z"/>
		<path class="st0" d="M90.6,198.7c-0.8,0-1.5-0.2-2.2-0.5c-0.6-0.3-1.1-0.8-1.4-1.4c-0.3-0.6-0.5-1.3-0.5-2.1
			c0-0.9,0.2-1.7,0.5-2.3s0.8-1.1,1.4-1.4c0.6-0.3,1.2-0.5,1.8-0.5c0.5,0,0.9,0.1,1.4,0.3c0.4,0.2,0.8,0.4,1.2,0.8
			c0.3,0.3,0.6,0.7,0.8,1.2c0.2,0.5,0.3,1,0.3,1.6c0,0.2-0.1,0.3-0.2,0.4c-0.1,0.1-0.3,0.2-0.4,0.2h-6.1l-0.3-1.1h5.9l-0.2,0.2v-0.3
			c0-0.4-0.2-0.8-0.4-1.1s-0.5-0.5-0.9-0.7c-0.3-0.2-0.7-0.2-1.1-0.2c-0.3,0-0.6,0.1-0.9,0.2c-0.3,0.1-0.6,0.3-0.8,0.5
			c-0.2,0.2-0.4,0.6-0.6,0.9c-0.1,0.4-0.2,0.8-0.2,1.4c0,0.6,0.1,1.1,0.4,1.6c0.2,0.5,0.6,0.8,1,1.1c0.4,0.3,0.9,0.4,1.5,0.4
			c0.4,0,0.7,0,0.9-0.1c0.3-0.1,0.5-0.2,0.7-0.3c0.2-0.1,0.4-0.3,0.5-0.4c0.1-0.1,0.3-0.1,0.4-0.1c0.2,0,0.3,0.1,0.4,0.2
			c0.1,0.1,0.1,0.2,0.1,0.4c0,0.2-0.1,0.3-0.2,0.5c-0.3,0.3-0.7,0.6-1.2,0.8C91.7,198.6,91.2,198.7,90.6,198.7z"/>
		<path class="st0" d="M103.9,190.5c0.7,0,1.3,0.2,1.9,0.5c0.6,0.3,1,0.8,1.3,1.4s0.5,1.3,0.5,2.1c0,0.8-0.2,1.5-0.5,2.1
			c-0.3,0.6-0.8,1.1-1.3,1.5s-1.2,0.5-1.9,0.5c-0.4,0-0.7-0.1-1.1-0.2c-0.3-0.1-0.6-0.3-0.9-0.5c-0.3-0.2-0.5-0.4-0.7-0.6
			c-0.2-0.2-0.3-0.5-0.4-0.7l0.3-0.2v4.5c0,0.2-0.1,0.3-0.2,0.4c-0.1,0.1-0.3,0.2-0.4,0.2c-0.2,0-0.3-0.1-0.4-0.2
			c-0.1-0.1-0.2-0.3-0.2-0.5v-9.8c0-0.2,0.1-0.3,0.2-0.4c0.1-0.1,0.3-0.2,0.4-0.2c0.2,0,0.3,0.1,0.4,0.2c0.1,0.1,0.2,0.3,0.2,0.4
			v1.4l-0.2-0.1c0.1-0.3,0.2-0.5,0.4-0.7s0.4-0.4,0.7-0.6c0.3-0.2,0.6-0.3,0.9-0.4C103.3,190.5,103.6,190.5,103.9,190.5z
			 M103.8,191.6c-0.5,0-1,0.1-1.4,0.4s-0.7,0.6-0.9,1s-0.3,1-0.3,1.5c0,0.6,0.1,1.1,0.3,1.5s0.5,0.8,0.9,1.1
			c0.4,0.3,0.9,0.4,1.4,0.4c0.5,0,1-0.1,1.4-0.4c0.4-0.3,0.7-0.6,0.9-1.1c0.2-0.5,0.3-1,0.3-1.5c0-0.6-0.1-1.1-0.3-1.5
			c-0.2-0.4-0.5-0.8-0.9-1C104.8,191.8,104.3,191.6,103.8,191.6z"/>
		<path class="st0" d="M110.1,198.6c-0.2,0-0.3-0.1-0.4-0.2c-0.1-0.1-0.2-0.3-0.2-0.4v-6.7c0-0.2,0.1-0.3,0.2-0.4
			c0.1-0.1,0.3-0.2,0.4-0.2c0.2,0,0.3,0.1,0.4,0.2c0.1,0.1,0.2,0.3,0.2,0.4v2l-0.2-0.3c0.1-0.3,0.2-0.6,0.3-0.9
			c0.2-0.3,0.4-0.6,0.6-0.8s0.5-0.4,0.8-0.6c0.3-0.1,0.7-0.2,1-0.2c0.2,0,0.4,0.1,0.6,0.2c0.2,0.1,0.3,0.3,0.3,0.5
			c0,0.2-0.1,0.4-0.2,0.5c-0.1,0.1-0.2,0.2-0.4,0.2c-0.1,0-0.3,0-0.4-0.1c-0.1-0.1-0.3-0.1-0.5-0.1c-0.3,0-0.5,0.1-0.8,0.2
			c-0.3,0.1-0.5,0.3-0.7,0.6c-0.2,0.3-0.4,0.5-0.5,0.9c-0.1,0.3-0.2,0.7-0.2,1v3.7c0,0.2-0.1,0.3-0.2,0.4
			C110.4,198.5,110.3,198.6,110.1,198.6z"/>
		<path class="st0" d="M122.9,194.6c0,0.8-0.2,1.5-0.5,2.1c-0.4,0.6-0.8,1.1-1.4,1.5c-0.6,0.4-1.3,0.5-2,0.5c-0.8,0-1.4-0.2-2-0.5
			s-1.1-0.9-1.4-1.5c-0.4-0.6-0.5-1.3-0.5-2.1c0-0.8,0.2-1.5,0.5-2.1c0.4-0.6,0.8-1.1,1.4-1.5s1.3-0.5,2-0.5c0.7,0,1.4,0.2,2,0.5
			c0.6,0.4,1.1,0.9,1.4,1.5C122.7,193.1,122.9,193.8,122.9,194.6z M121.6,194.6c0-0.6-0.1-1.1-0.4-1.6c-0.2-0.5-0.6-0.8-1-1.1
			c-0.4-0.3-0.9-0.4-1.4-0.4s-1,0.1-1.4,0.4c-0.4,0.3-0.7,0.6-1,1.1s-0.4,1-0.4,1.6c0,0.6,0.1,1.1,0.4,1.6c0.2,0.5,0.6,0.8,1,1.1
			s0.9,0.4,1.4,0.4s1-0.1,1.4-0.4s0.7-0.6,1-1.1C121.5,195.7,121.6,195.2,121.6,194.6z"/>
		<path class="st0" d="M126.2,199.1c0,0.5-0.1,1-0.3,1.3s-0.5,0.7-0.9,0.9c-0.3,0.2-0.7,0.3-1.1,0.3c-0.2,0-0.3-0.1-0.4-0.2
			c-0.1-0.1-0.2-0.2-0.2-0.4v-0.1c0-0.2,0.1-0.3,0.2-0.4c0.1-0.1,0.2-0.2,0.4-0.2c0.2-0.1,0.4-0.2,0.6-0.3c0.2-0.1,0.3-0.3,0.4-0.5
			c0.1-0.2,0.1-0.5,0.1-0.7v-7.6c0-0.2,0.1-0.3,0.2-0.4s0.3-0.2,0.4-0.2c0.2,0,0.3,0.1,0.4,0.2c0.1,0.1,0.2,0.3,0.2,0.4V199.1z
			 M125.6,189.5c-0.3,0-0.4-0.1-0.6-0.2c-0.1-0.1-0.2-0.3-0.2-0.5v-0.2c0-0.2,0.1-0.4,0.2-0.5c0.1-0.1,0.3-0.2,0.6-0.2
			s0.4,0.1,0.6,0.2c0.1,0.1,0.2,0.3,0.2,0.5v0.2c0,0.2-0.1,0.4-0.2,0.5S125.8,189.5,125.6,189.5z"/>
		<path class="st0" d="M132.6,198.7c-0.8,0-1.5-0.2-2.2-0.5c-0.6-0.3-1.1-0.8-1.4-1.4c-0.3-0.6-0.5-1.3-0.5-2.1
			c0-0.9,0.2-1.7,0.5-2.3s0.8-1.1,1.4-1.4c0.6-0.3,1.2-0.5,1.8-0.5c0.5,0,0.9,0.1,1.4,0.3c0.4,0.2,0.8,0.4,1.2,0.8
			c0.3,0.3,0.6,0.7,0.8,1.2c0.2,0.5,0.3,1,0.3,1.6c0,0.2-0.1,0.3-0.2,0.4c-0.1,0.1-0.3,0.2-0.4,0.2h-6.1l-0.3-1.1h5.9l-0.2,0.2v-0.3
			c0-0.4-0.2-0.8-0.4-1.1s-0.5-0.5-0.9-0.7c-0.3-0.2-0.7-0.2-1.1-0.2c-0.3,0-0.6,0.1-0.9,0.2c-0.3,0.1-0.6,0.3-0.8,0.5
			c-0.2,0.2-0.4,0.6-0.6,0.9c-0.1,0.4-0.2,0.8-0.2,1.4c0,0.6,0.1,1.1,0.4,1.6c0.2,0.5,0.6,0.8,1,1.1c0.4,0.3,0.9,0.4,1.5,0.4
			c0.4,0,0.7,0,0.9-0.1c0.3-0.1,0.5-0.2,0.7-0.3c0.2-0.1,0.4-0.3,0.5-0.4c0.1-0.1,0.3-0.1,0.4-0.1c0.2,0,0.3,0.1,0.4,0.2
			c0.1,0.1,0.1,0.2,0.1,0.4c0,0.2-0.1,0.3-0.2,0.5c-0.3,0.3-0.7,0.6-1.2,0.8C133.7,198.6,133.2,198.7,132.6,198.7z"/>
		<path class="st0" d="M141.3,190.4c0.5,0,1,0.1,1.4,0.2c0.4,0.1,0.8,0.3,1,0.5c0.2,0.2,0.4,0.4,0.4,0.7c0,0.1,0,0.3-0.1,0.4
			s-0.2,0.2-0.4,0.2c-0.1,0-0.3,0-0.3-0.1c-0.1-0.1-0.2-0.1-0.2-0.2c-0.1-0.1-0.2-0.2-0.3-0.2c-0.1-0.1-0.3-0.1-0.5-0.2
			s-0.5-0.1-0.7-0.1c-0.6,0-1.1,0.1-1.5,0.4c-0.4,0.3-0.8,0.6-1,1.1c-0.2,0.5-0.4,1-0.4,1.5s0.1,1.1,0.4,1.5s0.6,0.8,1,1.1
			c0.4,0.3,0.9,0.4,1.5,0.4c0.4,0,0.6,0,0.9-0.1s0.4-0.1,0.5-0.2c0.2-0.1,0.3-0.2,0.4-0.3c0.1-0.1,0.2-0.2,0.4-0.2
			c0.2,0,0.3,0.1,0.4,0.2s0.1,0.3,0.1,0.4c0,0.2-0.1,0.4-0.4,0.6c-0.3,0.2-0.6,0.4-1,0.5s-0.9,0.2-1.5,0.2c-0.8,0-1.5-0.2-2-0.5
			c-0.6-0.4-1-0.9-1.4-1.5c-0.3-0.6-0.5-1.3-0.5-2.1c0-0.8,0.2-1.5,0.5-2.1c0.3-0.6,0.8-1.1,1.4-1.5
			C139.8,190.6,140.5,190.4,141.3,190.4z"/>
		<path class="st0" d="M145.4,190.7h3.6c0.2,0,0.3,0.1,0.4,0.2c0.1,0.1,0.2,0.2,0.2,0.4c0,0.2-0.1,0.3-0.2,0.4
			c-0.1,0.1-0.2,0.2-0.4,0.2h-3.6c-0.2,0-0.3-0.1-0.4-0.2c-0.1-0.1-0.2-0.3-0.2-0.4c0-0.2,0.1-0.3,0.2-0.4
			C145.1,190.7,145.3,190.7,145.4,190.7z M147.1,188.6c0.2,0,0.3,0.1,0.4,0.2c0.1,0.1,0.2,0.3,0.2,0.4v7.4c0,0.2,0,0.4,0.1,0.6
			c0.1,0.1,0.2,0.2,0.3,0.3c0.1,0,0.2,0.1,0.3,0.1c0.1,0,0.2,0,0.3-0.1c0.1,0,0.2-0.1,0.3-0.1s0.2,0,0.3,0.1s0.1,0.2,0.1,0.4
			c0,0.2-0.1,0.3-0.3,0.5c-0.2,0.1-0.5,0.2-0.7,0.2c-0.1,0-0.3,0-0.5,0c-0.2,0-0.4-0.1-0.6-0.2c-0.2-0.1-0.4-0.3-0.5-0.6
			c-0.1-0.3-0.2-0.6-0.2-1.1v-7.5c0-0.2,0.1-0.3,0.2-0.4C146.7,188.6,146.9,188.6,147.1,188.6z"/>
	</g>
	<g>
		<path class="st0" d="M222.5,190.4c0.5,0,1,0.1,1.4,0.2c0.4,0.1,0.8,0.3,1,0.5c0.2,0.2,0.4,0.4,0.4,0.7c0,0.1,0,0.3-0.1,0.4
			s-0.2,0.2-0.4,0.2c-0.1,0-0.3,0-0.3-0.1c-0.1-0.1-0.2-0.1-0.2-0.2c-0.1-0.1-0.2-0.2-0.3-0.2c-0.1-0.1-0.3-0.1-0.5-0.2
			s-0.5-0.1-0.7-0.1c-0.6,0-1.1,0.1-1.5,0.4c-0.4,0.3-0.8,0.6-1,1.1c-0.2,0.5-0.4,1-0.4,1.5s0.1,1.1,0.4,1.5s0.6,0.8,1,1.1
			c0.4,0.3,0.9,0.4,1.5,0.4c0.4,0,0.6,0,0.9-0.1s0.4-0.1,0.5-0.2c0.2-0.1,0.3-0.2,0.4-0.3c0.1-0.1,0.2-0.2,0.4-0.2
			c0.2,0,0.3,0.1,0.4,0.2s0.1,0.3,0.1,0.4c0,0.2-0.1,0.4-0.4,0.6c-0.3,0.2-0.6,0.4-1,0.5s-0.9,0.2-1.5,0.2c-0.8,0-1.5-0.2-2-0.5
			c-0.6-0.4-1-0.9-1.4-1.5c-0.3-0.6-0.5-1.3-0.5-2.1c0-0.8,0.2-1.5,0.5-2.1c0.3-0.6,0.8-1.1,1.4-1.5
			C221,190.6,221.7,190.4,222.5,190.4z"/>
		<path class="st0" d="M227.6,198.6c-0.2,0-0.3-0.1-0.4-0.2c-0.1-0.1-0.2-0.3-0.2-0.4v-6.7c0-0.2,0.1-0.3,0.2-0.4
			c0.1-0.1,0.3-0.2,0.4-0.2c0.2,0,0.3,0.1,0.4,0.2c0.1,0.1,0.2,0.3,0.2,0.4v2l-0.2-0.3c0.1-0.3,0.2-0.6,0.3-0.9
			c0.2-0.3,0.4-0.6,0.6-0.8s0.5-0.4,0.8-0.6c0.3-0.1,0.7-0.2,1-0.2c0.2,0,0.4,0.1,0.6,0.2c0.2,0.1,0.3,0.3,0.3,0.5
			c0,0.2-0.1,0.4-0.2,0.5c-0.1,0.1-0.2,0.2-0.4,0.2c-0.1,0-0.3,0-0.4-0.1c-0.1-0.1-0.3-0.1-0.5-0.1c-0.3,0-0.5,0.1-0.8,0.2
			c-0.3,0.1-0.5,0.3-0.7,0.6c-0.2,0.3-0.4,0.5-0.5,0.9c-0.1,0.3-0.2,0.7-0.2,1v3.7c0,0.2-0.1,0.3-0.2,0.4
			C227.9,198.5,227.7,198.6,227.6,198.6z"/>
		<path class="st0" d="M236.5,198.7c-0.8,0-1.5-0.2-2.2-0.5c-0.6-0.3-1.1-0.8-1.4-1.4c-0.3-0.6-0.5-1.3-0.5-2.1
			c0-0.9,0.2-1.7,0.5-2.3s0.8-1.1,1.4-1.4c0.6-0.3,1.2-0.5,1.8-0.5c0.5,0,0.9,0.1,1.4,0.3c0.4,0.2,0.8,0.4,1.2,0.8
			c0.3,0.3,0.6,0.7,0.8,1.2c0.2,0.5,0.3,1,0.3,1.6c0,0.2-0.1,0.3-0.2,0.4c-0.1,0.1-0.3,0.2-0.4,0.2h-6.1l-0.3-1.1h5.9l-0.2,0.2v-0.3
			c0-0.4-0.2-0.8-0.4-1.1s-0.5-0.5-0.9-0.7c-0.3-0.2-0.7-0.2-1.1-0.2c-0.3,0-0.6,0.1-0.9,0.2c-0.3,0.1-0.6,0.3-0.8,0.5
			c-0.2,0.2-0.4,0.6-0.6,0.9c-0.1,0.4-0.2,0.8-0.2,1.4c0,0.6,0.1,1.1,0.4,1.6c0.2,0.5,0.6,0.8,1,1.1c0.4,0.3,0.9,0.4,1.5,0.4
			c0.4,0,0.7,0,0.9-0.1c0.3-0.1,0.5-0.2,0.7-0.3c0.2-0.1,0.4-0.3,0.5-0.4c0.1-0.1,0.3-0.1,0.4-0.1c0.2,0,0.3,0.1,0.4,0.2
			c0.1,0.1,0.1,0.2,0.1,0.4c0,0.2-0.1,0.3-0.2,0.5c-0.3,0.3-0.7,0.6-1.2,0.8C237.5,198.6,237,198.7,236.5,198.7z"/>
		<path class="st0" d="M248.2,190.5c0.2,0,0.3,0.1,0.4,0.2c0.1,0.1,0.2,0.3,0.2,0.4v6.8c0,0.2-0.1,0.3-0.2,0.4
			c-0.1,0.1-0.3,0.2-0.4,0.2c-0.2,0-0.3-0.1-0.4-0.2c-0.1-0.1-0.2-0.3-0.2-0.4v-1.5l0.3,0c0,0.2-0.1,0.5-0.2,0.7
			c-0.2,0.3-0.4,0.5-0.6,0.7c-0.3,0.2-0.6,0.4-0.9,0.6s-0.8,0.2-1.2,0.2c-0.7,0-1.3-0.2-1.9-0.5c-0.6-0.4-1-0.9-1.3-1.5
			c-0.3-0.6-0.5-1.3-0.5-2.1c0-0.8,0.2-1.5,0.5-2.1c0.3-0.6,0.8-1.1,1.3-1.5s1.2-0.5,1.8-0.5c0.4,0,0.9,0.1,1.2,0.2
			c0.4,0.1,0.7,0.3,1,0.6c0.3,0.2,0.5,0.5,0.7,0.8c0.2,0.3,0.2,0.6,0.2,0.9l-0.4-0.1v-1.7c0-0.2,0.1-0.3,0.2-0.4
			C247.9,190.6,248.1,190.5,248.2,190.5z M245.1,197.6c0.5,0,1-0.1,1.4-0.4c0.4-0.3,0.7-0.6,0.9-1.1s0.3-1,0.3-1.5
			c0-0.6-0.1-1.1-0.3-1.5s-0.5-0.8-0.9-1.1c-0.4-0.3-0.9-0.4-1.4-0.4c-0.5,0-1,0.1-1.3,0.4c-0.4,0.3-0.7,0.6-0.9,1.1
			c-0.2,0.5-0.3,1-0.3,1.6c0,0.6,0.1,1.1,0.3,1.5c0.2,0.5,0.5,0.8,0.9,1.1C244.1,197.5,244.6,197.6,245.1,197.6z"/>
		<path class="st0" d="M250.8,190.7h3.6c0.2,0,0.3,0.1,0.4,0.2c0.1,0.1,0.2,0.2,0.2,0.4c0,0.2-0.1,0.3-0.2,0.4
			c-0.1,0.1-0.2,0.2-0.4,0.2h-3.6c-0.2,0-0.3-0.1-0.4-0.2c-0.1-0.1-0.2-0.3-0.2-0.4c0-0.2,0.1-0.3,0.2-0.4
			C250.5,190.7,250.7,190.7,250.8,190.7z M252.4,188.6c0.2,0,0.3,0.1,0.4,0.2c0.1,0.1,0.2,0.3,0.2,0.4v7.4c0,0.2,0,0.4,0.1,0.6
			c0.1,0.1,0.2,0.2,0.3,0.3c0.1,0,0.2,0.1,0.3,0.1c0.1,0,0.2,0,0.3-0.1c0.1,0,0.2-0.1,0.3-0.1s0.2,0,0.3,0.1s0.1,0.2,0.1,0.4
			c0,0.2-0.1,0.3-0.3,0.5c-0.2,0.1-0.5,0.2-0.7,0.2c-0.1,0-0.3,0-0.5,0c-0.2,0-0.4-0.1-0.6-0.2c-0.2-0.1-0.4-0.3-0.5-0.6
			c-0.1-0.3-0.2-0.6-0.2-1.1v-7.5c0-0.2,0.1-0.3,0.2-0.4C252.1,188.6,252.3,188.6,252.4,188.6z"/>
		<path class="st0" d="M260.3,198.7c-0.8,0-1.5-0.2-2.2-0.5c-0.6-0.3-1.1-0.8-1.4-1.4c-0.3-0.6-0.5-1.3-0.5-2.1
			c0-0.9,0.2-1.7,0.5-2.3s0.8-1.1,1.4-1.4c0.6-0.3,1.2-0.5,1.8-0.5c0.5,0,0.9,0.1,1.4,0.3c0.4,0.2,0.8,0.4,1.2,0.8
			c0.3,0.3,0.6,0.7,0.8,1.2c0.2,0.5,0.3,1,0.3,1.6c0,0.2-0.1,0.3-0.2,0.4c-0.1,0.1-0.3,0.2-0.4,0.2h-6.1l-0.3-1.1h5.9l-0.2,0.2v-0.3
			c0-0.4-0.2-0.8-0.4-1.1s-0.5-0.5-0.9-0.7c-0.3-0.2-0.7-0.2-1.1-0.2c-0.3,0-0.6,0.1-0.9,0.2c-0.3,0.1-0.6,0.3-0.8,0.5
			c-0.2,0.2-0.4,0.6-0.6,0.9c-0.1,0.4-0.2,0.8-0.2,1.4c0,0.6,0.1,1.1,0.4,1.6c0.2,0.5,0.6,0.8,1,1.1c0.4,0.3,0.9,0.4,1.5,0.4
			c0.4,0,0.7,0,0.9-0.1c0.3-0.1,0.5-0.2,0.7-0.3c0.2-0.1,0.4-0.3,0.5-0.4c0.1-0.1,0.3-0.1,0.4-0.1c0.2,0,0.3,0.1,0.4,0.2
			c0.1,0.1,0.1,0.2,0.1,0.4c0,0.2-0.1,0.3-0.2,0.5c-0.3,0.3-0.7,0.6-1.2,0.8C261.4,198.6,260.9,198.7,260.3,198.7z"/>
		<path class="st0" d="M269.4,190.7h3.6c0.2,0,0.3,0.1,0.4,0.2c0.1,0.1,0.2,0.2,0.2,0.4c0,0.2-0.1,0.3-0.2,0.4
			c-0.1,0.1-0.2,0.2-0.4,0.2h-3.6c-0.2,0-0.3-0.1-0.4-0.2c-0.1-0.1-0.2-0.3-0.2-0.4c0-0.2,0.1-0.3,0.2-0.4
			C269.1,190.7,269.3,190.7,269.4,190.7z M271,188.6c0.2,0,0.3,0.1,0.4,0.2c0.1,0.1,0.2,0.3,0.2,0.4v7.4c0,0.2,0,0.4,0.1,0.6
			c0.1,0.1,0.2,0.2,0.3,0.3c0.1,0,0.2,0.1,0.3,0.1c0.1,0,0.2,0,0.3-0.1c0.1,0,0.2-0.1,0.3-0.1s0.2,0,0.3,0.1s0.1,0.2,0.1,0.4
			c0,0.2-0.1,0.3-0.3,0.5c-0.2,0.1-0.5,0.2-0.7,0.2c-0.1,0-0.3,0-0.5,0c-0.2,0-0.4-0.1-0.6-0.2c-0.2-0.1-0.4-0.3-0.5-0.6
			c-0.1-0.3-0.2-0.6-0.2-1.1v-7.5c0-0.2,0.1-0.3,0.2-0.4C270.7,188.6,270.9,188.6,271,188.6z"/>
		<path class="st0" d="M278.9,198.7c-0.8,0-1.5-0.2-2.2-0.5c-0.6-0.3-1.1-0.8-1.4-1.4c-0.3-0.6-0.5-1.3-0.5-2.1
			c0-0.9,0.2-1.7,0.5-2.3s0.8-1.1,1.4-1.4c0.6-0.3,1.2-0.5,1.8-0.5c0.5,0,0.9,0.1,1.4,0.3c0.4,0.2,0.8,0.4,1.2,0.8
			c0.3,0.3,0.6,0.7,0.8,1.2c0.2,0.5,0.3,1,0.3,1.6c0,0.2-0.1,0.3-0.2,0.4c-0.1,0.1-0.3,0.2-0.4,0.2h-6.1l-0.3-1.1h5.9l-0.2,0.2v-0.3
			c0-0.4-0.2-0.8-0.4-1.1s-0.5-0.5-0.9-0.7c-0.3-0.2-0.7-0.2-1.1-0.2c-0.3,0-0.6,0.1-0.9,0.2c-0.3,0.1-0.6,0.3-0.8,0.5
			c-0.2,0.2-0.4,0.6-0.6,0.9c-0.1,0.4-0.2,0.8-0.2,1.4c0,0.6,0.1,1.1,0.4,1.6c0.2,0.5,0.6,0.8,1,1.1c0.4,0.3,0.9,0.4,1.5,0.4
			c0.4,0,0.7,0,0.9-0.1c0.3-0.1,0.5-0.2,0.7-0.3c0.2-0.1,0.4-0.3,0.5-0.4c0.1-0.1,0.3-0.1,0.4-0.1c0.2,0,0.3,0.1,0.4,0.2
			c0.1,0.1,0.1,0.2,0.1,0.4c0,0.2-0.1,0.3-0.2,0.5c-0.3,0.3-0.7,0.6-1.2,0.8C280,198.6,279.5,198.7,278.9,198.7z"/>
		<path class="st0" d="M290.7,190.5c0.2,0,0.3,0.1,0.4,0.2c0.1,0.1,0.2,0.3,0.2,0.4v6.8c0,0.2-0.1,0.3-0.2,0.4
			c-0.1,0.1-0.3,0.2-0.4,0.2c-0.2,0-0.3-0.1-0.4-0.2c-0.1-0.1-0.2-0.3-0.2-0.4v-1.5l0.3,0c0,0.2-0.1,0.5-0.2,0.7
			c-0.2,0.3-0.4,0.5-0.6,0.7c-0.3,0.2-0.6,0.4-0.9,0.6s-0.8,0.2-1.2,0.2c-0.7,0-1.3-0.2-1.9-0.5c-0.6-0.4-1-0.9-1.3-1.5
			c-0.3-0.6-0.5-1.3-0.5-2.1c0-0.8,0.2-1.5,0.5-2.1c0.3-0.6,0.8-1.1,1.3-1.5s1.2-0.5,1.8-0.5c0.4,0,0.9,0.1,1.2,0.2
			c0.4,0.1,0.7,0.3,1,0.6c0.3,0.2,0.5,0.5,0.7,0.8c0.2,0.3,0.2,0.6,0.2,0.9l-0.4-0.1v-1.7c0-0.2,0.1-0.3,0.2-0.4
			C290.4,190.6,290.5,190.5,290.7,190.5z M287.5,197.6c0.5,0,1-0.1,1.4-0.4c0.4-0.3,0.7-0.6,0.9-1.1s0.3-1,0.3-1.5
			c0-0.6-0.1-1.1-0.3-1.5s-0.5-0.8-0.9-1.1c-0.4-0.3-0.9-0.4-1.4-0.4c-0.5,0-1,0.1-1.3,0.4c-0.4,0.3-0.7,0.6-0.9,1.1
			c-0.2,0.5-0.3,1-0.3,1.6c0,0.6,0.1,1.1,0.3,1.5c0.2,0.5,0.5,0.8,0.9,1.1C286.5,197.5,287,197.6,287.5,197.6z"/>
		<path class="st0" d="M297.4,190.5c0.7,0,1.3,0.2,1.7,0.5s0.7,0.9,0.9,1.5h-0.2l0.1-0.3c0.1-0.3,0.3-0.6,0.6-0.8
			c0.3-0.3,0.6-0.5,1-0.7c0.4-0.2,0.8-0.3,1.2-0.3c0.7,0,1.2,0.1,1.6,0.4s0.7,0.7,0.8,1.2c0.2,0.5,0.3,1,0.3,1.6v4.2
			c0,0.2-0.1,0.3-0.2,0.4c-0.1,0.1-0.3,0.2-0.4,0.2c-0.2,0-0.3-0.1-0.4-0.2c-0.1-0.1-0.2-0.3-0.2-0.4v-4.2c0-0.4-0.1-0.8-0.2-1.1
			c-0.1-0.3-0.3-0.6-0.6-0.8c-0.3-0.2-0.6-0.3-1.1-0.3c-0.4,0-0.8,0.1-1.2,0.3c-0.3,0.2-0.6,0.4-0.8,0.8c-0.2,0.3-0.3,0.7-0.3,1.1
			v4.2c0,0.2-0.1,0.3-0.2,0.4c-0.1,0.1-0.3,0.2-0.4,0.2c-0.2,0-0.3-0.1-0.4-0.2c-0.1-0.1-0.2-0.3-0.2-0.4v-4.2
			c0-0.4-0.1-0.7-0.2-1.1s-0.3-0.6-0.5-0.8c-0.3-0.2-0.6-0.3-1.1-0.3c-0.4,0-0.8,0.1-1.1,0.3c-0.3,0.2-0.6,0.4-0.8,0.8
			s-0.3,0.7-0.3,1.1v4.2c0,0.2-0.1,0.3-0.2,0.4c-0.1,0.1-0.3,0.2-0.4,0.2c-0.2,0-0.3-0.1-0.4-0.2c-0.1-0.1-0.2-0.3-0.2-0.4v-6.7
			c0-0.2,0.1-0.3,0.2-0.4c0.1-0.1,0.3-0.2,0.4-0.2c0.2,0,0.3,0.1,0.4,0.2c0.1,0.1,0.2,0.3,0.2,0.4v1.2l-0.3,0.4
			c0-0.3,0.1-0.5,0.3-0.8c0.2-0.3,0.4-0.5,0.7-0.7c0.3-0.2,0.6-0.4,0.9-0.5C296.7,190.6,297,190.5,297.4,190.5z"/>
		<path class="st0" d="M307.2,197.3c-0.1-0.1-0.1-0.3-0.1-0.4c0-0.1,0.1-0.3,0.3-0.4c0.1-0.1,0.2-0.1,0.4-0.1c0.1,0,0.3,0.1,0.4,0.2
			c0.3,0.3,0.6,0.6,1,0.8c0.4,0.2,0.8,0.3,1.4,0.3c0.2,0,0.5-0.1,0.7-0.1c0.2-0.1,0.5-0.2,0.6-0.4s0.3-0.4,0.3-0.7
			c0-0.3-0.1-0.5-0.3-0.7c-0.2-0.2-0.4-0.3-0.7-0.4c-0.3-0.1-0.6-0.2-0.9-0.3c-0.3-0.1-0.7-0.2-1-0.3s-0.6-0.3-0.9-0.4
			c-0.3-0.2-0.5-0.4-0.6-0.7c-0.2-0.3-0.2-0.6-0.2-1c0-0.5,0.1-0.9,0.4-1.2s0.6-0.6,1-0.8c0.4-0.2,0.9-0.3,1.4-0.3
			c0.3,0,0.6,0,0.9,0.1c0.3,0.1,0.6,0.2,0.9,0.3s0.6,0.4,0.8,0.7c0.1,0.1,0.1,0.2,0.2,0.4s-0.1,0.3-0.2,0.4
			c-0.1,0.1-0.2,0.1-0.4,0.1c-0.1,0-0.3-0.1-0.3-0.2c-0.2-0.3-0.5-0.5-0.8-0.6c-0.3-0.1-0.7-0.2-1.1-0.2c-0.2,0-0.5,0-0.7,0.1
			c-0.2,0.1-0.4,0.2-0.6,0.4c-0.2,0.2-0.2,0.4-0.2,0.7c0,0.3,0.1,0.5,0.3,0.7c0.2,0.2,0.4,0.3,0.7,0.4c0.3,0.1,0.6,0.2,1,0.3
			c0.3,0.1,0.6,0.2,0.9,0.3c0.3,0.1,0.6,0.2,0.8,0.4c0.2,0.2,0.4,0.4,0.6,0.7c0.1,0.3,0.2,0.6,0.2,1c0,0.5-0.1,0.9-0.4,1.2
			c-0.3,0.3-0.6,0.6-1.1,0.8s-0.9,0.3-1.4,0.3c-0.6,0-1.1-0.1-1.7-0.3C308.1,198.2,307.6,197.8,307.2,197.3z"/>
	</g>
	<text transform="matrix(1 0 0 1 387.5128 346.2725)" class="st0" style="font-family:'Quicksand-Medium'; font-size:15.4066px;">create tickets</text>
	<g>
		<path class="st0" d="M752.3,197.3c-0.1-0.1-0.1-0.3-0.1-0.4c0-0.1,0.1-0.3,0.3-0.4c0.1-0.1,0.2-0.1,0.4-0.1c0.1,0,0.3,0.1,0.4,0.2
			c0.3,0.3,0.6,0.6,1,0.8s0.8,0.3,1.4,0.3c0.2,0,0.5-0.1,0.7-0.1c0.2-0.1,0.5-0.2,0.6-0.4c0.2-0.2,0.3-0.4,0.3-0.7
			c0-0.3-0.1-0.5-0.3-0.7c-0.2-0.2-0.4-0.3-0.7-0.4c-0.3-0.1-0.6-0.2-0.9-0.3c-0.3-0.1-0.7-0.2-1-0.3s-0.6-0.3-0.9-0.4
			c-0.3-0.2-0.5-0.4-0.6-0.7c-0.2-0.3-0.2-0.6-0.2-1c0-0.5,0.1-0.9,0.4-1.2s0.6-0.6,1-0.8c0.4-0.2,0.9-0.3,1.4-0.3
			c0.3,0,0.6,0,0.9,0.1c0.3,0.1,0.6,0.2,0.9,0.3s0.6,0.4,0.8,0.7c0.1,0.1,0.1,0.2,0.2,0.4c0,0.2-0.1,0.3-0.2,0.4
			c-0.1,0.1-0.2,0.1-0.4,0.1c-0.1,0-0.3-0.1-0.3-0.2c-0.2-0.3-0.5-0.5-0.8-0.6c-0.3-0.1-0.7-0.2-1.1-0.2c-0.2,0-0.5,0-0.7,0.1
			c-0.2,0.1-0.4,0.2-0.6,0.4c-0.2,0.2-0.2,0.4-0.2,0.7c0,0.3,0.1,0.5,0.3,0.7c0.2,0.2,0.4,0.3,0.7,0.4c0.3,0.1,0.6,0.2,1,0.3
			c0.3,0.1,0.6,0.2,0.9,0.3c0.3,0.1,0.6,0.2,0.8,0.4c0.2,0.2,0.4,0.4,0.6,0.7c0.1,0.3,0.2,0.6,0.2,1c0,0.5-0.1,0.9-0.4,1.2
			c-0.3,0.3-0.6,0.6-1.1,0.8c-0.4,0.2-0.9,0.3-1.4,0.3c-0.6,0-1.1-0.1-1.7-0.3C753.2,198.2,752.7,197.8,752.3,197.3z"/>
		<path class="st0" d="M766,190.6c0.2,0,0.3,0.1,0.4,0.2c0.1,0.1,0.2,0.3,0.2,0.4v4.2c0,1-0.3,1.8-0.9,2.4c-0.6,0.6-1.4,0.9-2.4,0.9
			c-1,0-1.8-0.3-2.4-0.9c-0.6-0.6-0.9-1.4-0.9-2.4v-4.2c0-0.2,0.1-0.3,0.2-0.4s0.3-0.2,0.4-0.2c0.2,0,0.3,0.1,0.4,0.2
			s0.2,0.3,0.2,0.4v4.2c0,0.7,0.2,1.2,0.5,1.6c0.4,0.4,0.9,0.5,1.5,0.5c0.7,0,1.2-0.2,1.5-0.5c0.4-0.4,0.5-0.9,0.5-1.6v-4.2
			c0-0.2,0.1-0.3,0.2-0.4S765.8,190.6,766,190.6z"/>
		<path class="st0" d="M772.5,190.4c0.5,0,1,0.1,1.4,0.2c0.4,0.1,0.8,0.3,1,0.5c0.2,0.2,0.4,0.4,0.4,0.7c0,0.1,0,0.3-0.1,0.4
			c-0.1,0.1-0.2,0.2-0.4,0.2c-0.1,0-0.3,0-0.3-0.1c-0.1-0.1-0.2-0.1-0.2-0.2c-0.1-0.1-0.2-0.2-0.3-0.2c-0.1-0.1-0.3-0.1-0.5-0.2
			s-0.5-0.1-0.7-0.1c-0.6,0-1.1,0.1-1.5,0.4c-0.4,0.3-0.8,0.6-1,1.1c-0.2,0.5-0.4,1-0.4,1.5s0.1,1.1,0.4,1.5s0.6,0.8,1,1.1
			c0.4,0.3,0.9,0.4,1.5,0.4c0.4,0,0.6,0,0.9-0.1c0.2-0.1,0.4-0.1,0.5-0.2c0.2-0.1,0.3-0.2,0.4-0.3c0.1-0.1,0.2-0.2,0.4-0.2
			c0.2,0,0.3,0.1,0.4,0.2s0.1,0.3,0.1,0.4c0,0.2-0.1,0.4-0.4,0.6c-0.3,0.2-0.6,0.4-1,0.5c-0.4,0.1-0.9,0.2-1.5,0.2
			c-0.8,0-1.5-0.2-2-0.5c-0.6-0.4-1-0.9-1.4-1.5c-0.3-0.6-0.5-1.3-0.5-2.1c0-0.8,0.2-1.5,0.5-2.1c0.3-0.6,0.8-1.1,1.4-1.5
			C771,190.6,771.7,190.4,772.5,190.4z"/>
		<path class="st0" d="M780.4,190.4c0.5,0,1,0.1,1.4,0.2c0.4,0.1,0.8,0.3,1,0.5c0.2,0.2,0.4,0.4,0.4,0.7c0,0.1,0,0.3-0.1,0.4
			c-0.1,0.1-0.2,0.2-0.4,0.2c-0.1,0-0.3,0-0.3-0.1c-0.1-0.1-0.2-0.1-0.2-0.2c-0.1-0.1-0.2-0.2-0.3-0.2c-0.1-0.1-0.3-0.1-0.5-0.2
			s-0.5-0.1-0.7-0.1c-0.6,0-1.1,0.1-1.5,0.4c-0.4,0.3-0.8,0.6-1,1.1c-0.2,0.5-0.4,1-0.4,1.5s0.1,1.1,0.4,1.5s0.6,0.8,1,1.1
			c0.4,0.3,0.9,0.4,1.5,0.4c0.4,0,0.6,0,0.9-0.1c0.2-0.1,0.4-0.1,0.5-0.2c0.2-0.1,0.3-0.2,0.4-0.3c0.1-0.1,0.2-0.2,0.4-0.2
			c0.2,0,0.3,0.1,0.4,0.2s0.1,0.3,0.1,0.4c0,0.2-0.1,0.4-0.4,0.6c-0.3,0.2-0.6,0.4-1,0.5c-0.4,0.1-0.9,0.2-1.5,0.2
			c-0.8,0-1.5-0.2-2-0.5c-0.6-0.4-1-0.9-1.4-1.5c-0.3-0.6-0.5-1.3-0.5-2.1c0-0.8,0.2-1.5,0.5-2.1c0.3-0.6,0.8-1.1,1.4-1.5
			C779,190.6,779.7,190.4,780.4,190.4z"/>
		<path class="st0" d="M788.6,198.7c-0.8,0-1.5-0.2-2.2-0.5c-0.6-0.3-1.1-0.8-1.4-1.4c-0.3-0.6-0.5-1.3-0.5-2.1
			c0-0.9,0.2-1.7,0.5-2.3s0.8-1.1,1.4-1.4c0.6-0.3,1.2-0.5,1.8-0.5c0.5,0,0.9,0.1,1.4,0.3c0.4,0.2,0.8,0.4,1.2,0.8s0.6,0.7,0.8,1.2
			c0.2,0.5,0.3,1,0.3,1.6c0,0.2-0.1,0.3-0.2,0.4c-0.1,0.1-0.3,0.2-0.4,0.2h-6.1l-0.3-1.1h5.9l-0.2,0.2v-0.3c0-0.4-0.2-0.8-0.4-1.1
			s-0.5-0.5-0.9-0.7c-0.3-0.2-0.7-0.2-1.1-0.2c-0.3,0-0.6,0.1-0.9,0.2c-0.3,0.1-0.6,0.3-0.8,0.5s-0.4,0.6-0.6,0.9
			c-0.1,0.4-0.2,0.8-0.2,1.4c0,0.6,0.1,1.1,0.4,1.6c0.2,0.5,0.6,0.8,1,1.1c0.4,0.3,0.9,0.4,1.5,0.4c0.4,0,0.7,0,0.9-0.1
			c0.3-0.1,0.5-0.2,0.7-0.3s0.4-0.3,0.5-0.4c0.1-0.1,0.3-0.1,0.4-0.1c0.2,0,0.3,0.1,0.4,0.2c0.1,0.1,0.1,0.2,0.1,0.4
			c0,0.2-0.1,0.3-0.2,0.5c-0.3,0.3-0.7,0.6-1.2,0.8S789.1,198.7,788.6,198.7z"/>
		<path class="st0" d="M793.3,197.3c-0.1-0.1-0.1-0.3-0.1-0.4c0-0.1,0.1-0.3,0.3-0.4c0.1-0.1,0.2-0.1,0.4-0.1c0.1,0,0.3,0.1,0.4,0.2
			c0.3,0.3,0.6,0.6,1,0.8s0.8,0.3,1.4,0.3c0.2,0,0.5-0.1,0.7-0.1c0.2-0.1,0.5-0.2,0.6-0.4c0.2-0.2,0.3-0.4,0.3-0.7
			c0-0.3-0.1-0.5-0.3-0.7c-0.2-0.2-0.4-0.3-0.7-0.4c-0.3-0.1-0.6-0.2-0.9-0.3c-0.3-0.1-0.7-0.2-1-0.3s-0.6-0.3-0.9-0.4
			c-0.3-0.2-0.5-0.4-0.6-0.7c-0.2-0.3-0.2-0.6-0.2-1c0-0.5,0.1-0.9,0.4-1.2s0.6-0.6,1-0.8c0.4-0.2,0.9-0.3,1.4-0.3
			c0.3,0,0.6,0,0.9,0.1c0.3,0.1,0.6,0.2,0.9,0.3s0.6,0.4,0.8,0.7c0.1,0.1,0.1,0.2,0.2,0.4c0,0.2-0.1,0.3-0.2,0.4
			c-0.1,0.1-0.2,0.1-0.4,0.1c-0.1,0-0.3-0.1-0.3-0.2c-0.2-0.3-0.5-0.5-0.8-0.6c-0.3-0.1-0.7-0.2-1.1-0.2c-0.2,0-0.5,0-0.7,0.1
			c-0.2,0.1-0.4,0.2-0.6,0.4c-0.2,0.2-0.2,0.4-0.2,0.7c0,0.3,0.1,0.5,0.3,0.7c0.2,0.2,0.4,0.3,0.7,0.4c0.3,0.1,0.6,0.2,1,0.3
			c0.3,0.1,0.6,0.2,0.9,0.3c0.3,0.1,0.6,0.2,0.8,0.4c0.2,0.2,0.4,0.4,0.6,0.7c0.1,0.3,0.2,0.6,0.2,1c0,0.5-0.1,0.9-0.4,1.2
			c-0.3,0.3-0.6,0.6-1.1,0.8c-0.4,0.2-0.9,0.3-1.4,0.3c-0.6,0-1.1-0.1-1.7-0.3C794.2,198.2,793.7,197.8,793.3,197.3z"/>
		<path class="st0" d="M800.6,197.3c-0.1-0.1-0.1-0.3-0.1-0.4c0-0.1,0.1-0.3,0.3-0.4c0.1-0.1,0.2-0.1,0.4-0.1c0.1,0,0.3,0.1,0.4,0.2
			c0.3,0.3,0.6,0.6,1,0.8s0.8,0.3,1.4,0.3c0.2,0,0.5-0.1,0.7-0.1c0.2-0.1,0.5-0.2,0.6-0.4c0.2-0.2,0.3-0.4,0.3-0.7
			c0-0.3-0.1-0.5-0.3-0.7c-0.2-0.2-0.4-0.3-0.7-0.4c-0.3-0.1-0.6-0.2-0.9-0.3c-0.3-0.1-0.7-0.2-1-0.3s-0.6-0.3-0.9-0.4
			c-0.3-0.2-0.5-0.4-0.6-0.7c-0.2-0.3-0.2-0.6-0.2-1c0-0.5,0.1-0.9,0.4-1.2s0.6-0.6,1-0.8c0.4-0.2,0.9-0.3,1.4-0.3
			c0.3,0,0.6,0,0.9,0.1c0.3,0.1,0.6,0.2,0.9,0.3s0.6,0.4,0.8,0.7c0.1,0.1,0.1,0.2,0.2,0.4c0,0.2-0.1,0.3-0.2,0.4
			c-0.1,0.1-0.2,0.1-0.4,0.1c-0.1,0-0.3-0.1-0.3-0.2c-0.2-0.3-0.5-0.5-0.8-0.6c-0.3-0.1-0.7-0.2-1.1-0.2c-0.2,0-0.5,0-0.7,0.1
			c-0.2,0.1-0.4,0.2-0.6,0.4c-0.2,0.2-0.2,0.4-0.2,0.7c0,0.3,0.1,0.5,0.3,0.7c0.2,0.2,0.4,0.3,0.7,0.4c0.3,0.1,0.6,0.2,1,0.3
			c0.3,0.1,0.6,0.2,0.9,0.3c0.3,0.1,0.6,0.2,0.8,0.4c0.2,0.2,0.4,0.4,0.6,0.7c0.1,0.3,0.2,0.6,0.2,1c0,0.5-0.1,0.9-0.4,1.2
			c-0.3,0.3-0.6,0.6-1.1,0.8c-0.4,0.2-0.9,0.3-1.4,0.3c-0.6,0-1.1-0.1-1.7-0.3C801.5,198.2,801,197.8,800.6,197.3z"/>
	</g>
	<path class="st1" d="M632.6,166.5h-55.3c-3.4,0-6.1-2.7-6.1-6.1v-33c0-3.4,2.7-6.1,6.1-6.1h55.3c3.4,0,6.1,2.7,6.1,6.1v33
		C638.7,163.8,635.9,166.5,632.6,166.5z"/>
	<path class="st2" d="M571.2,117.2v-7.6c0-0.8,0.7-1.5,1.5-1.5h21.7c0.4,0,0.8,0.2,1.1,0.4l3.2,3.2c0.6,0.6,1.5,1,2.4,1h33.5
		c1.9,0,3.4,1.5,3.4,3.4v1.2"/>
	<g>
		<path class="st0" d="M576.9,187.2c0.2,0,0.3,0.1,0.4,0.2s0.2,0.3,0.2,0.4v10.2c0,0.2-0.1,0.3-0.2,0.4c-0.1,0.1-0.3,0.2-0.4,0.2
			c-0.2,0-0.3-0.1-0.4-0.2c-0.1-0.1-0.2-0.3-0.2-0.4v-1.5l0.3-0.1c0,0.2-0.1,0.5-0.2,0.8c-0.2,0.3-0.4,0.5-0.6,0.8
			c-0.3,0.2-0.6,0.4-0.9,0.6s-0.8,0.2-1.2,0.2c-0.7,0-1.3-0.2-1.9-0.5c-0.6-0.4-1-0.9-1.3-1.5c-0.3-0.6-0.5-1.3-0.5-2.1
			c0-0.8,0.2-1.5,0.5-2.2c0.3-0.6,0.8-1.1,1.3-1.5c0.6-0.4,1.2-0.5,1.8-0.5c0.4,0,0.8,0.1,1.2,0.2c0.4,0.1,0.7,0.3,1,0.6
			c0.3,0.2,0.5,0.5,0.7,0.8s0.2,0.6,0.2,0.9l-0.4-0.1v-5c0-0.2,0.1-0.3,0.2-0.4C576.6,187.2,576.7,187.2,576.9,187.2z M573.7,197.6
			c0.5,0,1-0.1,1.4-0.4s0.7-0.6,0.9-1.1s0.3-1,0.3-1.5c0-0.6-0.1-1.1-0.3-1.6s-0.5-0.8-0.9-1.1s-0.8-0.4-1.4-0.4
			c-0.5,0-1,0.1-1.3,0.4s-0.7,0.6-0.9,1.1c-0.2,0.5-0.3,1-0.3,1.6c0,0.6,0.1,1.1,0.3,1.5c0.2,0.5,0.5,0.8,0.9,1.1
			C572.8,197.5,573.2,197.6,573.7,197.6z"/>
		<path class="st0" d="M587.4,194.6c0,0.8-0.2,1.5-0.5,2.1c-0.4,0.6-0.8,1.1-1.4,1.5s-1.3,0.5-2,0.5c-0.8,0-1.4-0.2-2-0.5
			s-1.1-0.9-1.4-1.5c-0.4-0.6-0.5-1.3-0.5-2.1c0-0.8,0.2-1.5,0.5-2.1c0.4-0.6,0.8-1.1,1.4-1.5s1.3-0.5,2-0.5c0.7,0,1.4,0.2,2,0.5
			s1.1,0.9,1.4,1.5C587.2,193.1,587.4,193.8,587.4,194.6z M586.1,194.6c0-0.6-0.1-1.1-0.4-1.6s-0.6-0.8-1-1.1
			c-0.4-0.3-0.9-0.4-1.4-0.4c-0.5,0-1,0.1-1.4,0.4c-0.4,0.3-0.7,0.6-1,1.1c-0.2,0.5-0.4,1-0.4,1.6c0,0.6,0.1,1.1,0.4,1.6
			c0.2,0.5,0.6,0.8,1,1.1s0.9,0.4,1.4,0.4c0.5,0,1-0.1,1.4-0.4s0.7-0.6,1-1.1C586,195.7,586.1,195.2,586.1,194.6z"/>
		<path class="st0" d="M592.8,190.4c0.5,0,1,0.1,1.4,0.2c0.4,0.1,0.8,0.3,1,0.5c0.2,0.2,0.4,0.4,0.4,0.7c0,0.1,0,0.3-0.1,0.4
			c-0.1,0.1-0.2,0.2-0.4,0.2c-0.1,0-0.3,0-0.3-0.1c-0.1-0.1-0.2-0.1-0.2-0.2c-0.1-0.1-0.2-0.2-0.3-0.2c-0.1-0.1-0.3-0.1-0.5-0.2
			s-0.5-0.1-0.7-0.1c-0.6,0-1.1,0.1-1.5,0.4c-0.4,0.3-0.8,0.6-1,1.1c-0.2,0.5-0.4,1-0.4,1.5s0.1,1.1,0.4,1.5s0.6,0.8,1,1.1
			c0.4,0.3,0.9,0.4,1.5,0.4c0.4,0,0.6,0,0.9-0.1c0.2-0.1,0.4-0.1,0.5-0.2c0.2-0.1,0.3-0.2,0.4-0.3c0.1-0.1,0.2-0.2,0.4-0.2
			c0.2,0,0.3,0.1,0.4,0.2s0.1,0.3,0.1,0.4c0,0.2-0.1,0.4-0.4,0.6c-0.3,0.2-0.6,0.4-1,0.5c-0.4,0.1-0.9,0.2-1.5,0.2
			c-0.8,0-1.5-0.2-2-0.5c-0.6-0.4-1-0.9-1.4-1.5c-0.3-0.6-0.5-1.3-0.5-2.1c0-0.8,0.2-1.5,0.5-2.1c0.3-0.6,0.8-1.1,1.4-1.5
			C591.3,190.6,592,190.4,592.8,190.4z"/>
		<path class="st0" d="M603.2,190.6c0.2,0,0.3,0.1,0.4,0.2c0.1,0.1,0.2,0.3,0.2,0.4v4.2c0,1-0.3,1.8-0.9,2.4
			c-0.6,0.6-1.4,0.9-2.4,0.9c-1,0-1.8-0.3-2.4-0.9c-0.6-0.6-0.9-1.4-0.9-2.4v-4.2c0-0.2,0.1-0.3,0.2-0.4s0.3-0.2,0.4-0.2
			c0.2,0,0.3,0.1,0.4,0.2s0.2,0.3,0.2,0.4v4.2c0,0.7,0.2,1.2,0.5,1.6c0.4,0.4,0.9,0.5,1.5,0.5c0.7,0,1.2-0.2,1.5-0.5
			c0.4-0.4,0.5-0.9,0.5-1.6v-4.2c0-0.2,0.1-0.3,0.2-0.4S603,190.6,603.2,190.6z"/>
		<path class="st0" d="M609.9,190.5c0.7,0,1.3,0.2,1.7,0.5c0.4,0.4,0.7,0.9,0.9,1.5h-0.2l0.1-0.3c0.1-0.3,0.3-0.6,0.6-0.8
			c0.3-0.3,0.6-0.5,1-0.7c0.4-0.2,0.8-0.3,1.2-0.3c0.7,0,1.2,0.1,1.6,0.4c0.4,0.3,0.7,0.7,0.8,1.2c0.2,0.5,0.3,1,0.3,1.6v4.2
			c0,0.2-0.1,0.3-0.2,0.4c-0.1,0.1-0.3,0.2-0.4,0.2c-0.2,0-0.3-0.1-0.4-0.2c-0.1-0.1-0.2-0.3-0.2-0.4v-4.2c0-0.4-0.1-0.8-0.2-1.1
			c-0.1-0.3-0.3-0.6-0.6-0.8c-0.3-0.2-0.6-0.3-1.1-0.3c-0.4,0-0.8,0.1-1.2,0.3c-0.3,0.2-0.6,0.4-0.8,0.8c-0.2,0.3-0.3,0.7-0.3,1.1
			v4.2c0,0.2-0.1,0.3-0.2,0.4c-0.1,0.1-0.3,0.2-0.4,0.2c-0.2,0-0.3-0.1-0.4-0.2c-0.1-0.1-0.2-0.3-0.2-0.4v-4.2
			c0-0.4-0.1-0.7-0.2-1.1c-0.1-0.3-0.3-0.6-0.5-0.8c-0.3-0.2-0.6-0.3-1.1-0.3c-0.4,0-0.8,0.1-1.1,0.3c-0.3,0.2-0.6,0.4-0.8,0.8
			s-0.3,0.7-0.3,1.1v4.2c0,0.2-0.1,0.3-0.2,0.4c-0.1,0.1-0.3,0.2-0.4,0.2c-0.2,0-0.3-0.1-0.4-0.2c-0.1-0.1-0.2-0.3-0.2-0.4v-6.7
			c0-0.2,0.1-0.3,0.2-0.4s0.3-0.2,0.4-0.2c0.2,0,0.3,0.1,0.4,0.2s0.2,0.3,0.2,0.4v1.2l-0.3,0.4c0-0.3,0.1-0.5,0.3-0.8
			c0.2-0.3,0.4-0.5,0.7-0.7c0.3-0.2,0.6-0.4,0.9-0.5C609.2,190.6,609.5,190.5,609.9,190.5z"/>
		<path class="st0" d="M623.9,198.7c-0.8,0-1.5-0.2-2.2-0.5c-0.6-0.3-1.1-0.8-1.4-1.4c-0.3-0.6-0.5-1.3-0.5-2.1
			c0-0.9,0.2-1.7,0.5-2.3s0.8-1.1,1.4-1.4c0.6-0.3,1.2-0.5,1.8-0.5c0.5,0,0.9,0.1,1.4,0.3c0.4,0.2,0.8,0.4,1.2,0.8s0.6,0.7,0.8,1.2
			c0.2,0.5,0.3,1,0.3,1.6c0,0.2-0.1,0.3-0.2,0.4c-0.1,0.1-0.3,0.2-0.4,0.2h-6.1l-0.3-1.1h5.9l-0.2,0.2v-0.3c0-0.4-0.2-0.8-0.4-1.1
			s-0.5-0.5-0.9-0.7c-0.3-0.2-0.7-0.2-1.1-0.2c-0.3,0-0.6,0.1-0.9,0.2c-0.3,0.1-0.6,0.3-0.8,0.5s-0.4,0.6-0.6,0.9
			c-0.1,0.4-0.2,0.8-0.2,1.4c0,0.6,0.1,1.1,0.4,1.6c0.2,0.5,0.6,0.8,1,1.1c0.4,0.3,0.9,0.4,1.5,0.4c0.4,0,0.7,0,0.9-0.1
			c0.3-0.1,0.5-0.2,0.7-0.3s0.4-0.3,0.5-0.4c0.1-0.1,0.3-0.1,0.4-0.1c0.2,0,0.3,0.1,0.4,0.2c0.1,0.1,0.1,0.2,0.1,0.4
			c0,0.2-0.1,0.3-0.2,0.5c-0.3,0.3-0.7,0.6-1.2,0.8S624.4,198.7,623.9,198.7z"/>
		<path class="st0" d="M633,190.4c0.7,0,1.2,0.1,1.6,0.4c0.4,0.3,0.7,0.7,0.9,1.2c0.2,0.5,0.3,1,0.3,1.6v4.3c0,0.2-0.1,0.3-0.2,0.4
			c-0.1,0.1-0.3,0.2-0.4,0.2s-0.3-0.1-0.4-0.2c-0.1-0.1-0.2-0.3-0.2-0.4v-4.3c0-0.4-0.1-0.7-0.2-1.1s-0.3-0.6-0.6-0.8
			c-0.3-0.2-0.6-0.3-1.1-0.3c-0.4,0-0.8,0.1-1.2,0.3s-0.6,0.4-0.9,0.8s-0.3,0.7-0.3,1.1v4.3c0,0.2-0.1,0.3-0.2,0.4
			c-0.1,0.1-0.3,0.2-0.4,0.2c-0.2,0-0.3-0.1-0.4-0.2c-0.1-0.1-0.2-0.3-0.2-0.4v-6.7c0-0.2,0.1-0.3,0.2-0.4s0.3-0.2,0.4-0.2
			c0.2,0,0.3,0.1,0.4,0.2s0.2,0.3,0.2,0.4v1.1l-0.3,0.3c0.1-0.3,0.2-0.5,0.4-0.8c0.2-0.3,0.4-0.5,0.7-0.7s0.6-0.4,0.9-0.5
			C632.2,190.5,632.6,190.4,633,190.4z"/>
		<path class="st0" d="M637.7,190.7h3.6c0.2,0,0.3,0.1,0.4,0.2c0.1,0.1,0.2,0.2,0.2,0.4c0,0.2-0.1,0.3-0.2,0.4
			c-0.1,0.1-0.2,0.2-0.4,0.2h-3.6c-0.2,0-0.3-0.1-0.4-0.2c-0.1-0.1-0.2-0.3-0.2-0.4c0-0.2,0.1-0.3,0.2-0.4
			C637.4,190.7,637.5,190.7,637.7,190.7z M639.3,188.6c0.2,0,0.3,0.1,0.4,0.2s0.2,0.3,0.2,0.4v7.4c0,0.2,0,0.4,0.1,0.6
			c0.1,0.1,0.2,0.2,0.3,0.3c0.1,0,0.2,0.1,0.3,0.1c0.1,0,0.2,0,0.3-0.1c0.1,0,0.2-0.1,0.3-0.1s0.2,0,0.3,0.1s0.1,0.2,0.1,0.4
			c0,0.2-0.1,0.3-0.3,0.5c-0.2,0.1-0.5,0.2-0.7,0.2c-0.1,0-0.3,0-0.5,0c-0.2,0-0.4-0.1-0.6-0.2c-0.2-0.1-0.4-0.3-0.5-0.6
			c-0.1-0.3-0.2-0.6-0.2-1.1v-7.5c0-0.2,0.1-0.3,0.2-0.4S639.1,188.6,639.3,188.6z"/>
	</g>
	<g>
		<line class="st3" x1="638.7" y1="144" x2="734.1" y2="144"/>
		<path class="st1" d="M638.7,136.9c0,0,1.3,7.1,8.2,7.1c0,0-8.2,1.9-8.2,7.7"/>
		<path class="st0" d="M738.5,142.2l-8.8-5.1c-1.4-0.8-3.1,0.2-3.1,1.8v10.2c0,1.6,1.7,2.6,3.1,1.8l8.8-5.1
			C739.9,145,739.9,143,738.5,142.2z"/>
	</g>
	<g>
		<line class="st3" x1="124.8" y1="138.4" x2="220.3" y2="138.4"/>
		<path class="st1" d="M124.8,131.3c0,0,1.3,7.1,8.2,7.1c0,0-8.2,1.9-8.2,7.7"/>
		<path class="st0" d="M224.7,136.6l-8.8-5.1c-1.4-0.8-3.1,0.2-3.1,1.8v10.2c0,1.6,1.7,2.6,3.1,1.8l8.8-5.1
			C226.1,139.4,226.1,137.4,224.7,136.6z"/>
	</g>
	<g>
		<line class="st3" x1="298.5" y1="137.8" x2="394" y2="137.8"/>
		<path class="st2" d="M298.5,130.8c0,0,1.3,7.1,8.2,7.1c0,0-7.6,1.2-7.6,7"/>
		<path class="st0" d="M398.4,136l-8.8-5.1c-1.4-0.8-3.1,0.2-3.1,1.8v10.2c0,1.6,1.7,2.6,3.1,1.8l8.8-5.1
			C399.8,138.8,399.8,136.8,398.4,136z"/>
	</g>
	<line class="st1" x1="405.8" y1="115.2" x2="417.7" y2="103.5"/>
	<g>
		<path class="st0" d="M384,190.5c0.7,0,1.3,0.2,1.7,0.5s0.7,0.9,0.9,1.5h-0.2l0.1-0.3c0.1-0.3,0.3-0.6,0.6-0.8
			c0.3-0.3,0.6-0.5,1-0.7c0.4-0.2,0.8-0.3,1.2-0.3c0.7,0,1.2,0.1,1.6,0.4s0.7,0.7,0.8,1.2c0.2,0.5,0.3,1,0.3,1.6v4.2
			c0,0.2-0.1,0.3-0.2,0.4c-0.1,0.1-0.3,0.2-0.4,0.2c-0.2,0-0.3-0.1-0.4-0.2c-0.1-0.1-0.2-0.3-0.2-0.4v-4.2c0-0.4-0.1-0.8-0.2-1.1
			c-0.1-0.3-0.3-0.6-0.6-0.8c-0.3-0.2-0.6-0.3-1.1-0.3c-0.4,0-0.8,0.1-1.2,0.3c-0.3,0.2-0.6,0.4-0.8,0.8c-0.2,0.3-0.3,0.7-0.3,1.1
			v4.2c0,0.2-0.1,0.3-0.2,0.4c-0.1,0.1-0.3,0.2-0.4,0.2c-0.2,0-0.3-0.1-0.4-0.2c-0.1-0.1-0.2-0.3-0.2-0.4v-4.2
			c0-0.4-0.1-0.7-0.2-1.1s-0.3-0.6-0.5-0.8c-0.3-0.2-0.6-0.3-1.1-0.3c-0.4,0-0.8,0.1-1.1,0.3c-0.3,0.2-0.6,0.4-0.8,0.8
			s-0.3,0.7-0.3,1.1v4.2c0,0.2-0.1,0.3-0.2,0.4c-0.1,0.1-0.3,0.2-0.4,0.2c-0.2,0-0.3-0.1-0.4-0.2c-0.1-0.1-0.2-0.3-0.2-0.4v-6.7
			c0-0.2,0.1-0.3,0.2-0.4c0.1-0.1,0.3-0.2,0.4-0.2c0.2,0,0.3,0.1,0.4,0.2c0.1,0.1,0.2,0.3,0.2,0.4v1.2l-0.3,0.4
			c0-0.3,0.1-0.5,0.3-0.8c0.2-0.3,0.4-0.5,0.7-0.7c0.3-0.2,0.6-0.4,0.9-0.5C383.3,190.6,383.6,190.5,384,190.5z"/>
		<path class="st0" d="M400.8,190.5c0.2,0,0.3,0.1,0.4,0.2c0.1,0.1,0.2,0.3,0.2,0.4v6.8c0,0.2-0.1,0.3-0.2,0.4
			c-0.1,0.1-0.3,0.2-0.4,0.2c-0.2,0-0.3-0.1-0.4-0.2c-0.1-0.1-0.2-0.3-0.2-0.4v-1.5l0.3,0c0,0.2-0.1,0.5-0.2,0.7
			c-0.2,0.3-0.4,0.5-0.6,0.7c-0.3,0.2-0.6,0.4-0.9,0.6s-0.8,0.2-1.2,0.2c-0.7,0-1.3-0.2-1.9-0.5c-0.6-0.4-1-0.9-1.3-1.5
			c-0.3-0.6-0.5-1.3-0.5-2.1c0-0.8,0.2-1.5,0.5-2.1c0.3-0.6,0.8-1.1,1.3-1.5s1.2-0.5,1.8-0.5c0.4,0,0.9,0.1,1.2,0.2
			c0.4,0.1,0.7,0.3,1,0.6c0.3,0.2,0.5,0.5,0.7,0.8c0.2,0.3,0.2,0.6,0.2,0.9l-0.4-0.1v-1.7c0-0.2,0.1-0.3,0.2-0.4
			C400.5,190.6,400.7,190.5,400.8,190.5z M397.7,197.6c0.5,0,1-0.1,1.4-0.4c0.4-0.3,0.7-0.6,0.9-1.1s0.3-1,0.3-1.5
			c0-0.6-0.1-1.1-0.3-1.5s-0.5-0.8-0.9-1.1c-0.4-0.3-0.9-0.4-1.4-0.4c-0.5,0-1,0.1-1.3,0.4c-0.4,0.3-0.7,0.6-0.9,1.1
			c-0.2,0.5-0.3,1-0.3,1.6c0,0.6,0.1,1.1,0.3,1.5c0.2,0.5,0.5,0.8,0.9,1.1C396.7,197.5,397.2,197.6,397.7,197.6z"/>
		<path class="st0" d="M407.7,190.4c0.7,0,1.2,0.1,1.6,0.4c0.4,0.3,0.7,0.7,0.9,1.2c0.2,0.5,0.3,1,0.3,1.6v4.3
			c0,0.2-0.1,0.3-0.2,0.4c-0.1,0.1-0.3,0.2-0.4,0.2c-0.2,0-0.3-0.1-0.4-0.2c-0.1-0.1-0.2-0.3-0.2-0.4v-4.3c0-0.4-0.1-0.7-0.2-1.1
			c-0.1-0.3-0.3-0.6-0.6-0.8c-0.3-0.2-0.6-0.3-1.1-0.3c-0.4,0-0.8,0.1-1.2,0.3c-0.4,0.2-0.6,0.4-0.9,0.8c-0.2,0.3-0.3,0.7-0.3,1.1
			v4.3c0,0.2-0.1,0.3-0.2,0.4c-0.1,0.1-0.3,0.2-0.4,0.2c-0.2,0-0.3-0.1-0.4-0.2c-0.1-0.1-0.2-0.3-0.2-0.4v-6.7
			c0-0.2,0.1-0.3,0.2-0.4c0.1-0.1,0.3-0.2,0.4-0.2c0.2,0,0.3,0.1,0.4,0.2c0.1,0.1,0.2,0.3,0.2,0.4v1.1l-0.3,0.3
			c0.1-0.3,0.2-0.5,0.4-0.8c0.2-0.3,0.4-0.5,0.7-0.7s0.6-0.4,0.9-0.5C407,190.5,407.3,190.4,407.7,190.4z"/>
		<path class="st0" d="M419.3,190.5c0.2,0,0.3,0.1,0.4,0.2c0.1,0.1,0.2,0.3,0.2,0.4v6.8c0,0.2-0.1,0.3-0.2,0.4
			c-0.1,0.1-0.3,0.2-0.4,0.2c-0.2,0-0.3-0.1-0.4-0.2c-0.1-0.1-0.2-0.3-0.2-0.4v-1.5l0.3,0c0,0.2-0.1,0.5-0.2,0.7
			c-0.2,0.3-0.4,0.5-0.6,0.7c-0.3,0.2-0.6,0.4-0.9,0.6s-0.8,0.2-1.2,0.2c-0.7,0-1.3-0.2-1.9-0.5c-0.6-0.4-1-0.9-1.3-1.5
			c-0.3-0.6-0.5-1.3-0.5-2.1c0-0.8,0.2-1.5,0.5-2.1c0.3-0.6,0.8-1.1,1.3-1.5s1.2-0.5,1.8-0.5c0.4,0,0.9,0.1,1.2,0.2
			c0.4,0.1,0.7,0.3,1,0.6c0.3,0.2,0.5,0.5,0.7,0.8c0.2,0.3,0.2,0.6,0.2,0.9l-0.4-0.1v-1.7c0-0.2,0.1-0.3,0.2-0.4
			C419,190.6,419.1,190.5,419.3,190.5z M416.1,197.6c0.5,0,1-0.1,1.4-0.4c0.4-0.3,0.7-0.6,0.9-1.1s0.3-1,0.3-1.5
			c0-0.6-0.1-1.1-0.3-1.5s-0.5-0.8-0.9-1.1c-0.4-0.3-0.9-0.4-1.4-0.4c-0.5,0-1,0.1-1.3,0.4c-0.4,0.3-0.7,0.6-0.9,1.1
			c-0.2,0.5-0.3,1-0.3,1.6c0,0.6,0.1,1.1,0.3,1.5c0.2,0.5,0.5,0.8,0.9,1.1C415.2,197.5,415.6,197.6,416.1,197.6z"/>
		<path class="st0" d="M425.5,190.4c0.4,0,0.9,0.1,1.2,0.2c0.4,0.1,0.7,0.3,1,0.6s0.5,0.5,0.7,0.7s0.2,0.5,0.2,0.7l-0.3-0.2v-1.3
			c0-0.2,0.1-0.3,0.2-0.4c0.1-0.1,0.3-0.2,0.4-0.2c0.2,0,0.3,0.1,0.4,0.2c0.1,0.1,0.2,0.3,0.2,0.4v6.7c0,0.8-0.2,1.5-0.5,2.1
			s-0.8,1-1.4,1.2c-0.6,0.3-1.3,0.4-2,0.4c-0.3,0-0.6,0-1-0.1c-0.4-0.1-0.7-0.2-1-0.3s-0.5-0.2-0.6-0.4c-0.2-0.1-0.2-0.2-0.3-0.3
			c0-0.1,0-0.2,0.1-0.4c0.1-0.1,0.2-0.2,0.4-0.2c0.1,0,0.3,0,0.6,0.1c0.1,0,0.2,0.1,0.4,0.2c0.2,0.1,0.4,0.1,0.7,0.2
			c0.3,0.1,0.5,0.1,0.7,0.1c0.9,0,1.5-0.2,2-0.7c0.5-0.5,0.7-1.1,0.7-1.8v-1.4l0.2,0.1c-0.1,0.3-0.2,0.6-0.4,0.8
			c-0.2,0.2-0.4,0.5-0.7,0.7c-0.3,0.2-0.6,0.3-0.9,0.4c-0.3,0.1-0.7,0.2-1,0.2c-0.7,0-1.4-0.2-1.9-0.5s-1-0.9-1.4-1.5
			c-0.3-0.6-0.5-1.3-0.5-2.1c0-0.8,0.2-1.5,0.5-2.2c0.3-0.6,0.8-1.1,1.4-1.5C424.2,190.6,424.8,190.4,425.5,190.4z M425.7,191.6
			c-0.5,0-1,0.1-1.4,0.4s-0.7,0.6-1,1.1c-0.2,0.5-0.3,1-0.3,1.6c0,0.6,0.1,1.1,0.3,1.5c0.2,0.5,0.6,0.8,1,1.1
			c0.4,0.3,0.9,0.4,1.4,0.4c0.5,0,1-0.1,1.4-0.4s0.7-0.6,1-1.1c0.2-0.5,0.4-1,0.4-1.6c0-0.6-0.1-1.1-0.4-1.6s-0.6-0.8-1-1.1
			C426.7,191.7,426.2,191.6,425.7,191.6z"/>
		<path class="st0" d="M435.3,198.7c-0.8,0-1.5-0.2-2.2-0.5c-0.6-0.3-1.1-0.8-1.4-1.4c-0.3-0.6-0.5-1.3-0.5-2.1
			c0-0.9,0.2-1.7,0.5-2.3s0.8-1.1,1.4-1.4c0.6-0.3,1.2-0.5,1.8-0.5c0.5,0,0.9,0.1,1.4,0.3c0.4,0.2,0.8,0.4,1.2,0.8
			c0.3,0.3,0.6,0.7,0.8,1.2c0.2,0.5,0.3,1,0.3,1.6c0,0.2-0.1,0.3-0.2,0.4c-0.1,0.1-0.3,0.2-0.4,0.2h-6.1l-0.3-1.1h5.9l-0.2,0.2v-0.3
			c0-0.4-0.2-0.8-0.4-1.1c-0.2-0.3-0.5-0.5-0.9-0.7c-0.3-0.2-0.7-0.2-1.1-0.2c-0.3,0-0.6,0.1-0.9,0.2c-0.3,0.1-0.6,0.3-0.8,0.5
			c-0.2,0.2-0.4,0.6-0.6,0.9c-0.1,0.4-0.2,0.8-0.2,1.4c0,0.6,0.1,1.1,0.4,1.6c0.2,0.5,0.6,0.8,1,1.1c0.4,0.3,0.9,0.4,1.5,0.4
			c0.4,0,0.7,0,0.9-0.1c0.3-0.1,0.5-0.2,0.7-0.3s0.4-0.3,0.5-0.4c0.1-0.1,0.3-0.1,0.4-0.1c0.2,0,0.3,0.1,0.4,0.2
			c0.1,0.1,0.1,0.2,0.1,0.4c0,0.2-0.1,0.3-0.2,0.5c-0.3,0.3-0.7,0.6-1.2,0.8C436.3,198.6,435.8,198.7,435.3,198.7z"/>
		<path class="st0" d="M444.3,190.7h3.6c0.2,0,0.3,0.1,0.4,0.2c0.1,0.1,0.2,0.2,0.2,0.4c0,0.2-0.1,0.3-0.2,0.4
			c-0.1,0.1-0.2,0.2-0.4,0.2h-3.6c-0.2,0-0.3-0.1-0.4-0.2c-0.1-0.1-0.2-0.3-0.2-0.4c0-0.2,0.1-0.3,0.2-0.4
			C444.1,190.7,444.2,190.7,444.3,190.7z M446,188.6c0.2,0,0.3,0.1,0.4,0.2s0.2,0.3,0.2,0.4v7.4c0,0.2,0,0.4,0.1,0.6
			c0.1,0.1,0.2,0.2,0.3,0.3c0.1,0,0.2,0.1,0.3,0.1c0.1,0,0.2,0,0.3-0.1c0.1,0,0.2-0.1,0.3-0.1s0.2,0,0.3,0.1s0.1,0.2,0.1,0.4
			c0,0.2-0.1,0.3-0.3,0.5c-0.2,0.1-0.5,0.2-0.7,0.2c-0.1,0-0.3,0-0.5,0c-0.2,0-0.4-0.1-0.6-0.2c-0.2-0.1-0.4-0.3-0.5-0.6
			c-0.1-0.3-0.2-0.6-0.2-1.1v-7.5c0-0.2,0.1-0.3,0.2-0.4S445.8,188.6,446,188.6z"/>
		<path class="st0" d="M450.8,189.5c-0.3,0-0.4-0.1-0.6-0.2c-0.1-0.1-0.2-0.3-0.2-0.5v-0.2c0-0.2,0.1-0.4,0.2-0.5s0.3-0.2,0.6-0.2
			s0.4,0.1,0.6,0.2s0.2,0.3,0.2,0.5v0.2c0,0.2-0.1,0.4-0.2,0.5C451.2,189.4,451.1,189.5,450.8,189.5z M451.4,197.9
			c0,0.2-0.1,0.3-0.2,0.4c-0.1,0.1-0.3,0.2-0.4,0.2c-0.2,0-0.3-0.1-0.4-0.2c-0.1-0.1-0.2-0.3-0.2-0.4v-6.8c0-0.2,0.1-0.3,0.2-0.4
			c0.1-0.1,0.3-0.2,0.4-0.2s0.3,0.1,0.4,0.2s0.2,0.3,0.2,0.4V197.9z"/>
		<path class="st0" d="M457.2,190.4c0.5,0,1,0.1,1.4,0.2c0.4,0.1,0.8,0.3,1,0.5c0.2,0.2,0.4,0.4,0.4,0.7c0,0.1,0,0.3-0.1,0.4
			c-0.1,0.1-0.2,0.2-0.4,0.2c-0.1,0-0.3,0-0.3-0.1c-0.1-0.1-0.2-0.1-0.2-0.2c-0.1-0.1-0.2-0.2-0.3-0.2c-0.1-0.1-0.3-0.1-0.5-0.2
			s-0.5-0.1-0.7-0.1c-0.6,0-1.1,0.1-1.5,0.4c-0.4,0.3-0.8,0.6-1,1.1c-0.2,0.5-0.4,1-0.4,1.5s0.1,1.1,0.4,1.5s0.6,0.8,1,1.1
			c0.4,0.3,0.9,0.4,1.5,0.4c0.4,0,0.6,0,0.9-0.1c0.2-0.1,0.4-0.1,0.5-0.2c0.2-0.1,0.3-0.2,0.4-0.3c0.1-0.1,0.2-0.2,0.4-0.2
			c0.2,0,0.3,0.1,0.4,0.2s0.1,0.3,0.1,0.4c0,0.2-0.1,0.4-0.4,0.6c-0.3,0.2-0.6,0.4-1,0.5c-0.4,0.1-0.9,0.2-1.5,0.2
			c-0.8,0-1.5-0.2-2-0.5c-0.6-0.4-1-0.9-1.4-1.5c-0.3-0.6-0.5-1.3-0.5-2.1c0-0.8,0.2-1.5,0.5-2.1c0.3-0.6,0.8-1.1,1.4-1.5
			C455.7,190.6,456.4,190.4,457.2,190.4z"/>
		<path class="st0" d="M462.4,198.6c-0.2,0-0.3-0.1-0.4-0.2c-0.1-0.1-0.2-0.3-0.2-0.4v-10.2c0-0.2,0.1-0.3,0.2-0.4s0.3-0.2,0.4-0.2
			c0.2,0,0.3,0.1,0.4,0.2s0.2,0.3,0.2,0.4v10.2c0,0.2-0.1,0.3-0.2,0.4C462.7,198.5,462.6,198.6,462.4,198.6z M467.5,190.6
			c0.2,0,0.3,0.1,0.4,0.2c0.1,0.1,0.2,0.3,0.2,0.4c0,0.2-0.1,0.3-0.2,0.5l-5,4.4l0-1.4l4.3-3.8C467.2,190.6,467.3,190.6,467.5,190.6
			z M467.7,198.6c-0.2,0-0.3-0.1-0.5-0.2l-3.3-3.5l0.9-0.8l3.3,3.5c0.1,0.1,0.2,0.3,0.2,0.5c0,0.2-0.1,0.3-0.2,0.4
			C467.9,198.5,467.8,198.6,467.7,198.6z"/>
		<path class="st0" d="M473.4,198.7c-0.8,0-1.5-0.2-2.2-0.5c-0.6-0.3-1.1-0.8-1.4-1.4c-0.3-0.6-0.5-1.3-0.5-2.1
			c0-0.9,0.2-1.7,0.5-2.3s0.8-1.1,1.4-1.4c0.6-0.3,1.2-0.5,1.8-0.5c0.5,0,0.9,0.1,1.4,0.3c0.4,0.2,0.8,0.4,1.2,0.8s0.6,0.7,0.8,1.2
			c0.2,0.5,0.3,1,0.3,1.6c0,0.2-0.1,0.3-0.2,0.4c-0.1,0.1-0.3,0.2-0.4,0.2H470l-0.3-1.1h5.9l-0.2,0.2v-0.3c0-0.4-0.2-0.8-0.4-1.1
			s-0.5-0.5-0.9-0.7c-0.3-0.2-0.7-0.2-1.1-0.2c-0.3,0-0.6,0.1-0.9,0.2c-0.3,0.1-0.6,0.3-0.8,0.5s-0.4,0.6-0.6,0.9
			c-0.1,0.4-0.2,0.8-0.2,1.4c0,0.6,0.1,1.1,0.4,1.6c0.2,0.5,0.6,0.8,1,1.1c0.4,0.3,0.9,0.4,1.5,0.4c0.4,0,0.7,0,0.9-0.1
			c0.3-0.1,0.5-0.2,0.7-0.3s0.4-0.3,0.5-0.4c0.1-0.1,0.3-0.1,0.4-0.1c0.2,0,0.3,0.1,0.4,0.2c0.1,0.1,0.1,0.2,0.1,0.4
			c0,0.2-0.1,0.3-0.2,0.5c-0.3,0.3-0.7,0.6-1.2,0.8S474,198.7,473.4,198.7z"/>
		<path class="st0" d="M478.2,190.7h3.6c0.2,0,0.3,0.1,0.4,0.2c0.1,0.1,0.2,0.2,0.2,0.4c0,0.2-0.1,0.3-0.2,0.4
			c-0.1,0.1-0.2,0.2-0.4,0.2h-3.6c-0.2,0-0.3-0.1-0.4-0.2c-0.1-0.1-0.2-0.3-0.2-0.4c0-0.2,0.1-0.3,0.2-0.4
			C478,190.7,478.1,190.7,478.2,190.7z M479.9,188.6c0.2,0,0.3,0.1,0.4,0.2s0.2,0.3,0.2,0.4v7.4c0,0.2,0,0.4,0.1,0.6
			c0.1,0.1,0.2,0.2,0.3,0.3c0.1,0,0.2,0.1,0.3,0.1c0.1,0,0.2,0,0.3-0.1c0.1,0,0.2-0.1,0.3-0.1s0.2,0,0.3,0.1s0.1,0.2,0.1,0.4
			c0,0.2-0.1,0.3-0.3,0.5c-0.2,0.1-0.5,0.2-0.7,0.2c-0.1,0-0.3,0-0.5,0c-0.2,0-0.4-0.1-0.6-0.2c-0.2-0.1-0.4-0.3-0.5-0.6
			c-0.1-0.3-0.2-0.6-0.2-1.1v-7.5c0-0.2,0.1-0.3,0.2-0.4S479.7,188.6,479.9,188.6z"/>
		<path class="st0" d="M484,197.3c-0.1-0.1-0.1-0.3-0.1-0.4c0-0.1,0.1-0.3,0.3-0.4c0.1-0.1,0.2-0.1,0.4-0.1c0.1,0,0.3,0.1,0.4,0.2
			c0.3,0.3,0.6,0.6,1,0.8s0.8,0.3,1.4,0.3c0.2,0,0.5-0.1,0.7-0.1c0.2-0.1,0.5-0.2,0.6-0.4c0.2-0.2,0.3-0.4,0.3-0.7
			c0-0.3-0.1-0.5-0.3-0.7c-0.2-0.2-0.4-0.3-0.7-0.4c-0.3-0.1-0.6-0.2-0.9-0.3c-0.3-0.1-0.7-0.2-1-0.3s-0.6-0.3-0.9-0.4
			c-0.3-0.2-0.5-0.4-0.6-0.7c-0.2-0.3-0.2-0.6-0.2-1c0-0.5,0.1-0.9,0.4-1.2s0.6-0.6,1-0.8c0.4-0.2,0.9-0.3,1.4-0.3
			c0.3,0,0.6,0,0.9,0.1c0.3,0.1,0.6,0.2,0.9,0.3s0.6,0.4,0.8,0.7c0.1,0.1,0.1,0.2,0.2,0.4c0,0.2-0.1,0.3-0.2,0.4
			c-0.1,0.1-0.2,0.1-0.4,0.1c-0.1,0-0.3-0.1-0.3-0.2c-0.2-0.3-0.5-0.5-0.8-0.6c-0.3-0.1-0.7-0.2-1.1-0.2c-0.2,0-0.5,0-0.7,0.1
			c-0.2,0.1-0.4,0.2-0.6,0.4c-0.2,0.2-0.2,0.4-0.2,0.7c0,0.3,0.1,0.5,0.3,0.7c0.2,0.2,0.4,0.3,0.7,0.4c0.3,0.1,0.6,0.2,1,0.3
			c0.3,0.1,0.6,0.2,0.9,0.3c0.3,0.1,0.6,0.2,0.8,0.4c0.2,0.2,0.4,0.4,0.6,0.7c0.1,0.3,0.2,0.6,0.2,1c0,0.5-0.1,0.9-0.4,1.2
			c-0.3,0.3-0.6,0.6-1.1,0.8c-0.4,0.2-0.9,0.3-1.4,0.3c-0.6,0-1.1-0.1-1.7-0.3C484.9,198.2,484.4,197.8,484,197.3z"/>
	</g>
	<polyline class="st1" points="405.8,115.2 405.8,166.8 463.7,166.8 463.7,103.5 417.7,103.5 	"/>
	<polyline class="st1" points="405.8,117 420.1,117 420.1,103.5 	"/>
	<line class="st1" x1="456.8" y1="117.1" x2="431.7" y2="117.1"/>
	<line class="st1" x1="413" y1="157.8" x2="456.8" y2="157.8"/>
	<line class="st1" x1="413" y1="144" x2="456.8" y2="144"/>
	<line class="st1" x1="413" y1="130.5" x2="456.8" y2="130.5"/>
	<line class="st3" x1="463.7" y1="138.4" x2="559.2" y2="138.4"/>
	<path class="st1" d="M463.7,131.3c0,0,1.3,7.1,8.2,7.1c0,0-8.2,1.9-8.2,7.7"/>
	<path class="st0" d="M563.6,136.6l-8.8-5.1c-1.4-0.8-3.1,0.2-3.1,1.8v10.2c0,1.6,1.7,2.6,3.1,1.8l8.8-5.1
		C565,139.4,565,137.4,563.6,136.6z"/>
	<path class="st1" d="M70.9,166.8h50.1c2.2,0,3.9-1.8,3.9-3.9v-55.5c0-2.2-1.8-3.9-3.9-3.9H70.9c-2.2,0-3.9,1.8-3.9,3.9v55.5
		C66.9,165.1,68.7,166.8,70.9,166.8z"/>
	<line class="st1" x1="95.9" y1="122.8" x2="95.9" y2="147.5"/>
	<line class="st1" x1="108.2" y1="135.1" x2="83.5" y2="135.1"/>
	<circle class="st1" cx="266.9" cy="139.3" r="32.6"/>
	<circle class="st1" cx="776.9" cy="143.2" r="32.6"/>
	<circle class="st0" cx="253.7" cy="135.1" r="4.9"/>
	<path class="st1" d="M275.6,148.7c0,5.2-4.2,9.4-9.4,9.4c-5.2,0-9.4-4.2-9.4-9.4"/>
	<line class="st1" x1="250.5" y1="127.1" x2="256.7" y2="125.8"/>
	<line class="st1" x1="274.2" y1="125.7" x2="280.4" y2="127.2"/>
	<circle class="st0" cx="277.3" cy="135.1" r="4.9"/>
	<g>
		<path class="st0" d="M435.6,90.3l-4.1-6c-1-1.4,0-3.3,1.7-3.3h8.2c1.7,0,2.7,1.9,1.7,3.3l-4.1,6C438.2,91.5,436.4,91.5,435.6,90.3
			z"/>
		<path class="st4" d="M610.5,87.8c0-43.8-38.8-79.4-86.6-79.4S437.3,44,437.3,87.8"/>
	</g>
	<polyline class="st5" points="757.1,139.6 772.3,154.8 816.5,110.6 	"/>
	<circle class="st6" cx="9.5" cy="2.4" r="2.4"/>
	<circle class="st6" cx="21.7" cy="2.4" r="2.4"/>
	<circle class="st6" cx="33.9" cy="2.4" r="2.4"/>
	<circle class="st6" cx="46.1" cy="2.4" r="2.4"/>
	<circle class="st6" cx="58.3" cy="2.4" r="2.4"/>
	<circle class="st6" cx="70.5" cy="2.4" r="2.4"/>
	<circle class="st6" cx="9.5" cy="14.9" r="2.4"/>
	<circle class="st6" cx="21.7" cy="14.9" r="2.4"/>
	<circle class="st6" cx="33.9" cy="14.9" r="2.4"/>
	<circle class="st6" cx="46.1" cy="14.9" r="2.4"/>
	<circle class="st6" cx="58.3" cy="14.9" r="2.4"/>
	<circle class="st6" cx="70.5" cy="14.9" r="2.4"/>
	<circle class="st6" cx="9.5" cy="27.3" r="2.4"/>
	<circle class="st6" cx="21.7" cy="27.3" r="2.4"/>
	<circle class="st6" cx="33.9" cy="27.3" r="2.4"/>
	<circle class="st6" cx="46.1" cy="27.3" r="2.4"/>
	<circle class="st6" cx="58.3" cy="27.3" r="2.4"/>
	<circle class="st6" cx="70.5" cy="27.3" r="2.4"/>
	<circle class="st6" cx="9.5" cy="39.8" r="2.4"/>
	<circle class="st6" cx="21.7" cy="39.8" r="2.4"/>
	<circle class="st6" cx="33.9" cy="39.8" r="2.4"/>
	<circle class="st6" cx="46.1" cy="39.8" r="2.4"/>
	<circle class="st6" cx="58.3" cy="39.8" r="2.4"/>
	<circle class="st6" cx="70.5" cy="39.8" r="2.4"/>
	<circle class="st6" cx="9.5" cy="52.3" r="2.4"/>
	<circle class="st6" cx="21.7" cy="52.3" r="2.4"/>
	<circle class="st6" cx="33.9" cy="52.3" r="2.4"/>
	<circle class="st6" cx="46.1" cy="52.3" r="2.4"/>
	<circle class="st6" cx="58.3" cy="52.3" r="2.4"/>
	<circle class="st6" cx="70.5" cy="52.3" r="2.4"/>
	<circle class="st6" cx="9.5" cy="64.7" r="2.4"/>
	<circle class="st6" cx="21.7" cy="64.7" r="2.4"/>
	<circle class="st6" cx="33.9" cy="64.7" r="2.4"/>
	<circle class="st6" cx="46.1" cy="64.7" r="2.4"/>
	<circle class="st6" cx="58.3" cy="64.7" r="2.4"/>
	<circle class="st6" cx="70.5" cy="64.7" r="2.4"/>
	<g>
		<path class="st7" d="M692.5,225.3c0,0,9,12.1-2.2,18"/>
		<path class="st7" d="M692.2,225.4c0,0,5.1,14.1,16.3,8.1"/>
		<path class="st7" d="M705.8,251.3c0,0-9-12.1,2.2-18"/>
		<path class="st7" d="M706,251.1c0,0-5.1-14.1-16.3-8.1"/>
	</g>
</g>
</svg>
